<?xml version="1.0" encoding="utf-8"?>
<!-- Generator: Adobe Illustrator 25.0.0, SVG Export Plug-In . SVG Version: 6.00 Build 0)  -->
<svg version="1.1" xmlns="http://www.w3.org/2000/svg" xmlns:xlink="http://www.w3.org/1999/xlink" x="0px" y="0px"
	 viewBox="0 0 1080 396.3" style="enable-background:new 0 0 1080 396.3;" xml:space="preserve">
<style type="text/css">
	.st0{fill:#CAE0CE;}
	.st1{opacity:0.2;fill:#263238;}
	.st2{opacity:0.2;}
	.st3{fill:#FFFFFF;stroke:#263238;stroke-miterlimit:10;}
	.st4{fill:#263238;stroke:#FFFFFF;stroke-miterlimit:10;}
	.st5{fill:#92E3A9;}
	.st6{fill:#FFFFFF;}
	.st7{fill:#92E3A9;stroke:#263238;stroke-linecap:round;stroke-linejoin:round;stroke-miterlimit:10;}
	.st8{fill:#263238;}
	.st9{clip-path:url(#XMLID_2_);}
	.st10{opacity:0.5;fill:#FFFFFF;}
	.st11{opacity:0.5;}
	.st12{fill:none;}
	.st13{fill:none;stroke:#263238;stroke-miterlimit:10;}
	.st14{clip-path:url(#XMLID_3_);fill:#92E3A9;}
	.st15{clip-path:url(#XMLID_3_);}
	.st16{opacity:0.5;clip-path:url(#XMLID_3_);fill:#FFFFFF;}
	.st17{opacity:0.5;clip-path:url(#XMLID_3_);}
	.st18{fill:none;stroke:#263238;stroke-linecap:round;stroke-linejoin:round;stroke-miterlimit:10;}
	.st19{fill:#FFFFFF;stroke:#263238;stroke-linecap:round;stroke-linejoin:round;stroke-miterlimit:10;}
	.st20{fill:#757575;stroke:#263238;stroke-linecap:round;stroke-linejoin:round;stroke-miterlimit:10;}
	.st21{fill:#999999;stroke:#263238;stroke-linecap:round;stroke-linejoin:round;stroke-miterlimit:10;}
	.st22{fill:#BFBFBF;stroke:#263238;stroke-linecap:round;stroke-linejoin:round;stroke-miterlimit:10;}
	.st23{opacity:0.1;fill:#FFFFFF;}
	.st24{clip-path:url(#XMLID_4_);}
</style>
<g id="Background_Simple">
</g>
<g id="Plants">
</g>
<g id="Keyboard">
</g>
<g id="Hands">
</g>
<g id="Coffee">
</g>
<g id="Monitor">
</g>
<g id="Code_1_">
</g>
<g id="Mouse">
	<rect class="st0" width="1080" height="396.3"/>
	<g>
		<path class="st1" d="M487.6,255C487.4,254.9,487.4,254.8,487.6,255L487.6,255z"/>
		<g>
			<path class="st2" d="M419.7,241.4c-1,6.4-5.7,11.6-11.9,13.7l-2.3,0.8c-8.4,11.9-23.2,17-35.8,9.6l-3.7-2.2L355.7,251
				c0,0-0.1,0-0.1,0c-3.3,0.7-7,0.2-9.4-2.1c-0.4,2-3,3.2-4.8,2.2c-1.8-1-2-3.9-0.4-5.2c-2.1,1.8-5.3,1-7.3-1
				c-0.1-5.5,0.5-10.9,1.8-16.3c0.8-3.4,1.9-6.6,3.3-9.7c1-2.4,2.1-4.7,3.4-6.9c0.1-0.2,0.2-0.4,0.3-0.6c1.9-3.3,4-6.4,6.3-9.5
				c0.4-0.4,0.8-0.7,1.2-1.1c0.9-0.8,1.8-1.6,2.7-2.4c0.1,0,0.1-0.1,0.2-0.2c1.5-1.3,2.9-2.5,4.4-3.8c2.3-1.9,4.7-3.8,7-5.7
				c0.1-0.1,0.2-0.1,0.2-0.2c2-1.6,4.1-3.2,6.1-4.8c1-0.8,2-1.6,3.1-2.4c0.6,0.1,1.2,0.2,1.8,0.4c2.5,0.9,3,3.2,4.7,4.8
				c2.3,2.1,4.6-1.4,8.1-1.3c11,0.3,6.7,11.6,12.1,10.2c23.2-6.1,19.3,23.6,9.2,30.1C415.7,230.4,420.8,233.7,419.7,241.4z"/>
			<g>
				<ellipse class="st3" cx="369.8" cy="231" rx="39.1" ry="38.6"/>
				<ellipse class="st4" cx="369.8" cy="229.4" rx="35.7" ry="35.2"/>
			</g>
			<g>
				<g>
					<g>
						<g>
							<g>
								<g>
									<path class="st5" d="M331.5,243.3c-2.2,1.4-2.9,6.1-1.1,8.1c1.8,2,5.2,0.5,5.8-2.7c0.3,0.9,1.4,1,1.9,0.3
										c0.4-0.5,0.4-1.4,0.1-2c-0.2-0.1-0.1-0.2,0,0c1.1,0.9,3.1-0.1,3.4-2c-0.8,5.2,3.9,9.7,7.4,7.1c-1,2.2,0.3,5.1,2.1,5.7
										c1.8,0.6,3.7-0.5,5.4-1.7c1.7-1.2,3.5-2.5,5.4-2.6c1.6-0.1,3.2,0.8,4.7,1.4c5,1.7,10.8-0.6,14.6-5.8
										c2.5,4.3,8.7,2.7,10.4-2.6c0.3,2.5,2.1,4.4,4,4.4c1.9,0,3.8-1.8,4.5-4.3l0,0c0,2.4,2.2,3.5,3.7,2c1.9-1.9,3.1-5.5,2.2-8.4
										c2.6-0.1,5.1-3.1,5.5-6.5c0.4-3.5-1.3-6.9-3.8-7.6c4.3-1.8,7.6-7.6,7.8-13.5c0.2-5.9-2.9-11.4-7.1-12.8
										c-1.6-0.5-3.5-0.4-4.8,1c-0.5-3.4-2-6.4-4.3-7.9c-3.6-2.4-8.6-0.8-11.3,3.8c1.3-2.3,1.4-5.7,0.2-7.9
										c-1.2-2.2-3.5-3.1-5.5-2c-0.4-3.6-3.2-6.2-6-5.5c-2.7,0.7-4.9,4.6-4.7,8.2c-0.3-2.9-3.7-3.7-5-1.2c0.1,0.2-0.1,0.1,0,0
										c-1.7-3.6-5.3-5.5-8.5-4.5c-3.5,1.1-6.4,5.5-6.9,10.3c-2.4-2.2-5.9-2.1-8.5,0.2c-2.6,2.3-4.1,6.7-3.6,10.7
										c-2.7-2.7-7.3-1.2-9.1,2.9c-1.9,4.1-0.6,10,2.6,11.7c-2.2,0.3-4.1,3.2-4.1,6.1c0,2.9,1.9,5.4,4.1,5.3
										c-2.2,0.2-4.3,2.8-4.6,5.7C327.9,239.7,329.4,242.6,331.5,243.3z"/>
								</g>
							</g>
							<g class="st2">
								<g>
									<path class="st6" d="M367.4,229.7c-1.1-0.9-2.5-1.4-3.8-0.9c-1.3,0.4-2.6,1.8-2.9,3.5c-0.3,1.7,0.5,3.6,1.8,3.9
										c1.6,0.4,3.2-1.4,4.9-1.2c0.6,0.1,1.1,0.4,1.7,0.5c2.3,0.7,4.7-1.4,6.7-3.4c0.7-0.7,1.4-1.4,1.9-2.4
										c0.5-0.9,0.7-2.2,0.3-3.1c-0.6-1.3-2-1.4-3.2-1.1c-2.4,0.5-4.7,1.8-6.6,3.9c0.1-0.5,0.1-1,0.2-1.4L367.4,229.7z"/>
								</g>
								<g>
									<path class="st6" d="M401.5,225.1c-0.6-0.5-1.3-1.1-2-1.2c-0.8-0.2-1.6,0.1-2.1,0.9c-0.7,1.1-0.3,2.8,0.5,3.5
										c0.8,0.8,1.9,1,3,1.1c1.1,0.1,2.4,0.1,3-1.1c0.4-0.9,0.1-2.1-0.5-2.7c-0.6-0.7-1.3-0.9-2.1-1.2L401.5,225.1z"/>
								</g>
								<g>
									<path class="st6" d="M348.2,205.8c-2.2,1.3-3.9,3.9-4.5,6.9c-0.2,0.9-0.2,2,0.4,2.4c0.4,0.3,1,0.1,1.5,0
										c2.1-0.8,4.2-1.5,6.3-2.3c-1,0.5-2,1.1-2.8,2.1c-0.8,1-1.4,2.4-1.1,3.7c0.3,1.5,1.6,2.4,2.8,2.3c1.3-0.1,2.4-1,3.5-2
										c1.1-1.1,2.2-2.5,2.2-4.2c0.1-1.7-1.6-3.2-2.6-2c2.4-1,4.7-2.4,6.8-4.3c0.8-0.7,1.5-1.4,2-2.4c0.5-1,0.7-2.3,0.3-3.3
										c-2-4.8-4.9,2.6-6.2,3.3C354.1,207.4,351.3,203.9,348.2,205.8z"/>
									<path class="st6" d="M338.1,227.5c-0.2,1-0.1,2.1,0.5,2.7c0.6,0.6,1.7,0.3,2-0.6c-1.4,0.6-2.9,1.4-3.8,2.9
										c-0.9,1.5-0.7,4.1,0.6,4.6c0.9,0.3,1.8-0.3,2.6-0.9c2.3-1.7,4.5-3.7,6.5-5.8c-0.7,1.9,0.8,3.8,2.3,3.9
										c1.5,0.1,3-1.1,4.4-2.2c1.7-1.4,3.6-3.4,3.2-5.8c-0.3-2-2.4-2.8-4-2.1c-1.6,0.7-2.8,2.4-4,4.1c0.9-1.7-0.3-4-1.8-4.2
										c-1.5-0.2-3,1.1-3.9,2.5c1.8-1.3,2.2-4.5-0.1-4.7C341.1,221.8,338.5,225.8,338.1,227.5z"/>
									<path class="st6" d="M385.8,217.5c-1.3-0.5-3,0.6-3.3,2.4c-0.4,1.7,0.6,3.7,2,3.8c-1,0.2-2,0.9-2.7,1.9
										c-0.4,0.6-0.7,1.3-0.6,2c0.1,1.1,1,1.7,1.8,1.7c0.8,0,1.7-0.5,2.4-1c-0.8,0.2-1.7,0.3-2.4,1c-0.7,0.7-1,2.1-0.4,2.8
										c0.5,0.6,1.3,0.4,2,0.2c1.5-0.6,3-1.7,4.1-3.2c0.8,1.2,2.1,2,3.4,1.6c1.3-0.3,2.4-2.1,2-3.7c-0.3-1.1-1.2-1.7-2.1-1.8
										c-0.9-0.1-1.8,0.3-2.7,0.7c0.9-0.9,1.9-1.8,2.2-3.2c0.4-1.4-0.3-3.1-1.4-2.9c-1.2,0.2-1.9,2.4-2.9,3.2
										C386.1,221.7,388.4,218.6,385.8,217.5z"/>
									<g>
										<path class="st6" d="M363.7,212.3c-1.4,1.3-2,3.7-1.9,5.9c0.1,2.4,0.9,4.9,2.6,5.7c2.2,1.1,5.1-1.4,5.6-4.6
											c0.5-3.1-1.1-6.2-3.2-7.5C366.7,211.8,365.1,211,363.7,212.3z"/>
									</g>
									<g>
										<path class="st6" d="M379.5,208.8c0.2,0.2,0.4,0.4,0.6,0.6c-0.9-1.5-2.9-1.6-4.1-0.2c-1.2,1.4-1.2,4-0.1,5.3
											c1.1,1.3,3.1,1,4.1-0.6c1.6,0.9,3.8,0.4,4.9-1.5c1.2-1.8,1-4.9-0.6-5.9c-1.5-1-3.9,0.8-3.8,3.1c-0.2-0.3-0.4-0.6-0.7-0.9
											L379.5,208.8z"/>
									</g>
									<g>
										<path class="st6" d="M396.8,211.3c-1.1,1.5-2.3,3-2.8,5c-0.4,1.9,0.2,4.4,1.7,4.8c1.5,0.4,3-1.3,3.8-3
											c0.8-1.5,1.4-3.4,1-5.1c-0.4-1.7-2.3-2.6-3.3-1.2L396.8,211.3z"/>
									</g>
									<path class="st6" d="M372,201.2c-0.5-1.6-2.3-2-3.5-1c-1.2,1-1.7,3.1-1.2,4.7c0.5,1.6,1.8,2.6,3.2,2.8
										c1.7,0.1,3.8-1.7,3.4-3.9c0.7,1.2,2,1.6,3.2,1.4c1.2-0.2,2.4-1,3.4-1.8c1.5-1.1,3-2.9,2.9-4.9c-0.1-1.7-1.3-2.9-2.6-3
										c-1.3-0.1-2.6,0.8-3.6,1.9c-0.8,0.9-1.5,2-2.3,2.8c-0.9,0.8-2,1.3-2.9,0.7L372,201.2z"/>
								</g>
							</g>
						</g>
					</g>
				</g>
			</g>
		</g>
		<g>
			<g>
				<rect x="438.6" y="259.6" class="st7" width="217.8" height="91.7"/>
				<g>
					<rect x="443.1" y="265.2" class="st3" width="20.5" height="11.3"/>
					<rect x="619" y="320.5" class="st3" width="32.3" height="11.3"/>
					<rect x="631.4" y="279.4" class="st3" width="19.9" height="11.3"/>
					<rect x="443.1" y="306.5" class="st3" width="20.5" height="11.3"/>
					<rect x="443.1" y="292.8" class="st3" width="16.6" height="11.3"/>
					<g>
						<rect x="443.1" y="279" class="st3" width="11.3" height="11.3"/>
						<rect x="457.6" y="279" class="st3" width="11.3" height="11.3"/>
						<rect x="472.1" y="279" class="st3" width="11.3" height="11.3"/>
						<rect x="486.5" y="279" class="st3" width="11.3" height="11.3"/>
						<rect x="501" y="279" class="st3" width="11.3" height="11.3"/>
						<rect x="515.5" y="279" class="st3" width="11.3" height="11.3"/>
						<rect x="530" y="279" class="st3" width="11.3" height="11.3"/>
						<rect x="544.5" y="279" class="st3" width="11.3" height="11.3"/>
						<rect x="558.9" y="279" class="st3" width="11.3" height="11.3"/>
						<rect x="573.4" y="279" class="st3" width="11.3" height="11.3"/>
						<rect x="587.9" y="279" class="st3" width="11.3" height="11.3"/>
						<rect x="602.4" y="279" class="st3" width="11.3" height="11.3"/>
						<rect x="616.8" y="279" class="st3" width="11.3" height="11.3"/>
					</g>
					<g>
						<rect x="443.1" y="334.5" class="st3" width="11.3" height="11.3"/>
						<rect x="457.6" y="334.5" class="st3" width="11.3" height="11.3"/>
						<rect x="472.1" y="334.5" class="st3" width="11.3" height="11.3"/>
						<rect x="486.5" y="334.5" class="st3" width="13.8" height="11.3"/>
						<rect x="503.5" y="334.5" class="st3" width="69.2" height="11.3"/>
						<rect x="596" y="334.5" class="st3" width="11.3" height="11.3"/>
						<rect x="610.5" y="334.5" class="st3" width="11.3" height="11.3"/>
						<rect x="625" y="334.5" class="st3" width="11.3" height="11.3"/>
						<rect x="575.6" y="334.5" class="st3" width="17.6" height="11.3"/>
						<rect x="640" y="334.5" class="st3" width="11.3" height="11.3"/>
					</g>
					<g>
						<rect x="462.9" y="292.8" class="st3" width="11.3" height="11.3"/>
						<rect x="477.4" y="292.8" class="st3" width="11.3" height="11.3"/>
						<rect x="491.9" y="292.8" class="st3" width="11.3" height="11.3"/>
						<rect x="506.4" y="292.8" class="st3" width="11.3" height="11.3"/>
						<rect x="520.8" y="292.8" class="st3" width="11.3" height="11.3"/>
						<rect x="535.3" y="292.8" class="st3" width="11.3" height="11.3"/>
						<rect x="549.8" y="292.8" class="st3" width="11.3" height="11.3"/>
						<rect x="564.3" y="292.8" class="st3" width="11.3" height="11.3"/>
						<rect x="578.7" y="292.8" class="st3" width="11.3" height="11.3"/>
						<rect x="593.2" y="292.8" class="st3" width="11.3" height="11.3"/>
						<rect x="607.7" y="292.8" class="st3" width="11.3" height="11.3"/>
						<rect x="622.2" y="292.8" class="st3" width="11.3" height="11.3"/>
						<polygon class="st3" points="651.3,292.8 651.3,318 640,318 640,304.2 636.6,304.2 636.6,292.8 						"/>
					</g>
					<g>
						<rect x="466.2" y="306.7" class="st3" width="11.3" height="11.3"/>
						<rect x="480.7" y="306.7" class="st3" width="11.3" height="11.3"/>
						<rect x="495.2" y="306.7" class="st3" width="11.3" height="11.3"/>
						<rect x="509.7" y="306.7" class="st3" width="11.3" height="11.3"/>
						<rect x="524.1" y="306.7" class="st3" width="11.3" height="11.3"/>
						<rect x="538.6" y="306.7" class="st3" width="11.3" height="11.3"/>
						<rect x="553.1" y="306.7" class="st3" width="11.3" height="11.3"/>
						<rect x="567.6" y="306.7" class="st3" width="11.3" height="11.3"/>
						<rect x="582.1" y="306.7" class="st3" width="11.3" height="11.3"/>
						<rect x="596.5" y="306.7" class="st3" width="11.3" height="11.3"/>
						<rect x="611" y="306.7" class="st3" width="11.3" height="11.3"/>
						<rect x="625.5" y="306.7" class="st3" width="11.3" height="11.3"/>
					</g>
					<g>
						<rect x="460.1" y="320.5" class="st3" width="11.3" height="11.3"/>
						<rect x="474.6" y="320.5" class="st3" width="11.3" height="11.3"/>
						<rect x="489" y="320.5" class="st3" width="11.3" height="11.3"/>
						<rect x="503.5" y="320.5" class="st3" width="11.3" height="11.3"/>
						<rect x="518" y="320.5" class="st3" width="11.3" height="11.3"/>
						<rect x="532.5" y="320.5" class="st3" width="11.3" height="11.3"/>
						<rect x="546.9" y="320.5" class="st3" width="11.3" height="11.3"/>
						<rect x="561.4" y="320.5" class="st3" width="11.3" height="11.3"/>
						<rect x="575.9" y="320.5" class="st3" width="11.3" height="11.3"/>
						<rect x="590.4" y="320.5" class="st3" width="11.3" height="11.3"/>
						<rect x="604.8" y="320.5" class="st3" width="11.3" height="11.3"/>
					</g>
					<g>
						<rect x="466.2" y="265.9" class="st3" width="11.3" height="11.3"/>
						<rect x="480.7" y="265.9" class="st3" width="11.3" height="11.3"/>
						<rect x="495.2" y="265.9" class="st3" width="11.3" height="11.3"/>
						<rect x="509.7" y="265.9" class="st3" width="11.3" height="11.3"/>
						<rect x="524.1" y="265.9" class="st3" width="11.3" height="11.3"/>
						<rect x="538.6" y="265.9" class="st3" width="11.3" height="11.3"/>
						<rect x="553.1" y="265.9" class="st3" width="11.3" height="11.3"/>
						<rect x="567.6" y="265.9" class="st3" width="11.3" height="11.3"/>
						<rect x="582.1" y="265.9" class="st3" width="11.3" height="11.3"/>
						<rect x="596.5" y="265.9" class="st3" width="11.3" height="11.3"/>
						<rect x="611" y="265.9" class="st3" width="11.3" height="11.3"/>
						<rect x="625.5" y="265.9" class="st3" width="11.3" height="11.3"/>
						<rect x="640" y="265.9" class="st3" width="11.3" height="11.3"/>
					</g>
					<rect x="443.1" y="320.5" class="st3" width="13.7" height="11.3"/>
				</g>
			</g>
			<polygon class="st8" points="438.6,260.2 443.1,258.7 653.4,258.7 656.4,260.2 			"/>
		</g>
		<g>
			<path class="st2" d="M594,417.5l-4.4-26.7c-1-4-3.1-7.6-6-10.4c-8.8-8.5-20.4-17.2-20.9-28.4c-0.8-17-3.4-16.5-3.1-20.7
				c0-0.2,1.3-2,3-6.2c0.5-1.4,0.9-3.4,1.3-5c0.4-1.7,2-2.9,3.8-2.7c1.2,0.2,2.4,0.7,3.2,1.5c1.6,1.6,2.3,3.9,2.4,6.1
				c0.1,2.2-0.4,4.5-0.9,6.7c1.6,3.5,2.3,7.9,2.8,11.7c1-3.1,1.8-6.3,2.8-9.4c0.2-0.1,0.1-0.4,0.3-0.5c-1.4-3.1-0.2-2.9-3-9.6
				c-4.7-11.3-10-22.3-13.8-36.5c-0.3-1.1-0.3-2.9,0.1-4c1.4-4.1,5.6-3.1,7.4-0.8c0.5,0.6,0.8,1.3,1.1,2.1c1.9,5.1,6.1,12.9,9,17.4
				l10.3,15.7c0,0,3.6-2.9,4.1-4.2l0,0c0.5-1.3,0.8-12,0.8-12s-0.8,2-2.6,1.9c-1.3-0.1-3.9,0.7-5.8-1.5c-1.5-1.7-1.5-4.3-0.2-6.2
				l4.7-6.3c0,0,3.1-2.7,7.3-0.9c4.2,1.9,8.2,5.8,8.2,5.8s3.9-0.2,7.2,1.4c3.3,1.6,6.8,6.1,6.8,6.1s3.8,0.2,5.6,1.5
				c0.4,0.3,6.3,9.4,4.2,16.5c-1.3,4.2-2,10.4-2.6,12l-2.9,41.6l5.8,27.4l-12.4,6.9c-4.6,2.5-9.3,4.7-14.3,6.4L594,417.5z"/>
			<g>
				<g>
					<g>
						<g>
							<g>
								<defs>
									<path id="XMLID_8_" d="M629.3,368.9l0.1-41.7c0.5-1.7,0.8-7.9,1.8-12.2c1.6-7.2-4.8-16-5.3-16.2c-1.8-1.1-5.7-1.1-5.7-1.1
										s-3.7-4.3-7.1-5.7c-3.4-1.4-7.2-0.9-7.2-0.9s-4.3-3.6-8.6-5.2c-4.3-1.6-7.2,1.4-7.2,1.4l-4.2,6.6c-1.2,1.9-1.1,4.5,0.6,6.2
										c2,2,4.6,1.1,5.9,1.1c1.8,0,2.5-2,2.5-2s0.4,10.6,0,12l0,0c-0.5,1.4-3.8,4.5-3.8,4.5l-11.3-15c-3.3-4.3-7.9-11.8-10.2-16.8
										c-0.3-0.7-0.7-1.4-1.3-2c-2-2.2-6.2-2.9-7.3,1.3c-0.3,1.1-0.2,2.9,0.2,4c4.7,14,10.7,24.5,16.2,35.5
										c3.3,6.5,2.1,6.4,3.7,9.4c-0.2,0.1-0.1,0.4-0.3,0.5c-0.8,3.2-1.4,6.4-2.2,9.5c-0.8-3.8-1.8-8.1-3.6-11.5
										c0.4-2.2,0.7-4.5,0.5-6.7c-0.2-2.2-1.1-4.5-2.8-6c-0.9-0.7-2.1-1.2-3.3-1.3c-1.8-0.1-3.4,1.2-3.6,2.9
										c-0.3,1.7-0.5,3.7-0.9,5.1c-1.4,4.3-2.6,6.3-2.6,6.4c0,4.2,2.6,3.5,4.5,20.5c1.5,13.2,18.5,21.9,27.7,31.4l9.9,31
										c11.4-4.6,22.4-10.5,32.9-17.3L629.3,368.9z"/>
								</defs>
								<use xlink:href="#XMLID_8_"  style="overflow:visible;fill:#FFFFFF;"/>
								<clipPath id="XMLID_2_">
									<use xlink:href="#XMLID_8_"  style="overflow:visible;"/>
								</clipPath>
								<g class="st9">
									<g>
										<path class="st5" d="M624.4,312.2c0.5-1.2,1.1-2.5,2.2-3.3c1.1-0.8,2.8-0.9,3.6,0.1c-0.7-2.2-1.5-4.3-2.2-6.5
											c-0.6-1.6-1.3-3.3-2.6-4.4c-1.3-1.1-3.6-1.3-4.7,0c0.8,4.9,0.9,10,0.3,14.9c-0.3,2.7-0.8,5.8,1,7.8c0.5,0.4,1.4-0.3,1-0.9
											c-0.1-0.3-0.7-0.3-0.9-0.3C622.6,317.1,623.4,314.6,624.4,312.2z"/>
										<path class="st5" d="M624.4,312.2c0.5-1.2,1.1-2.5,2.2-3.3c1.1-0.8,2.8-0.9,3.6,0.1c-0.7-2.2-1.5-4.3-2.2-6.5
											c-0.6-1.6-1.3-3.3-2.6-4.4c-1.3-1.1-3.6-1.3-4.7,0c0.8,4.9,0.9,10,0.3,14.9c-0.3,2.7-0.8,5.8,1,7.8c0.5,0.4,1.4-0.3,1-0.9
											c-0.1-0.3-0.7-0.3-0.9-0.3C622.6,317.1,623.4,314.6,624.4,312.2z"/>
										<path class="st10" d="M624.4,312.2c0.5-1.2,1.1-2.5,2.2-3.3c1.1-0.8,2.8-0.9,3.6,0.1c-0.7-2.2-1.5-4.3-2.2-6.5
											c-0.6-1.6-1.3-3.3-2.6-4.4c-1.3-1.1-3.6-1.3-4.7,0c0.8,4.9,0.9,10,0.3,14.9c-0.3,2.7-0.8,5.8,1,7.8c0.5,0.4,1.4-0.3,1-0.9
											c-0.1-0.3-0.7-0.3-0.9-0.3C622.6,317.1,623.4,314.6,624.4,312.2z"/>
									</g>
									<g>
										<path class="st5" d="M609.4,307.7c0.1,1.8,0.1,3.7,0.5,5.4c0.4,1.8,1.4,3.5,3,4.4c-0.9-3.5-0.4-7.2,0.1-10.8
											c0.3-2.2,0.6-4.4,0.9-6.6c0.1-0.8,0.2-1.6,0.7-2.2c0.4-0.6,1.3-1,2-0.7c-0.9,0.6-2.1-0.2-2.7-1.1c-0.6-0.9-0.8-2-1.5-2.9
											c-1.3-1.6-4-2-5.8-1.5C607.1,297,609.1,302.1,609.4,307.7z"/>
										<g>
											<path class="st5" d="M609.4,307.7c0.1,1.8,0.1,3.7,0.5,5.4c0.4,1.8,1.4,3.5,3,4.4c-0.9-3.5-0.4-7.2,0.1-10.8
												c0.3-2.2,0.6-4.4,0.9-6.6c0.1-0.8,0.2-1.6,0.7-2.2c0.4-0.6,1.3-1,2-0.7c-0.9,0.6-2.1-0.2-2.7-1.1c-0.6-0.9-0.8-2-1.5-2.9
												c-1.3-1.6-4-2-5.8-1.5C607.1,297,609.1,302.1,609.4,307.7z"/>
										</g>
										<g class="st11">
											<path class="st6" d="M609.4,307.7c0.1,1.8,0.1,3.7,0.5,5.4c0.4,1.8,1.4,3.5,3,4.4c-0.9-3.5-0.4-7.2,0.1-10.8
												c0.3-2.2,0.6-4.4,0.9-6.6c0.1-0.8,0.2-1.6,0.7-2.2c0.4-0.6,1.3-1,2-0.7c-0.9,0.6-2.1-0.2-2.7-1.1c-0.6-0.9-0.8-2-1.5-2.9
												c-1.3-1.6-4-2-5.8-1.5C607.1,297,609.1,302.1,609.4,307.7z"/>
										</g>
									</g>
									<g>
										<g>
											<path class="st5" d="M593.9,293.1c-0.6-0.4-0.8-1.3-1-2c-0.2-0.7-0.4-1.5-1.1-1.9c-2.9,1.8-1.3,7.2-4.2,9
												c-0.6,0.3-1.3,0.5-1.6,1.1c-0.3,0.5-0.1,1.2,0.3,1.7c0.4,0.4,1,0.7,1.6,0.8c2.3,0.4,4.8-0.8,6.2-2.7
												c1.1-1.6,1.9-4.1,1.4-6C595,293.4,594.4,293.5,593.9,293.1z"/>
											<path class="st5" d="M563.8,328.4c-0.1,0.2-0.1,0.5,0.1,0.6c0.2,0.2,0.6-0.1,0.8-0.4c1.2-1.7,3.6-2.5,5.6-1.8
												c0.8,0,1-1.2,0.5-1.8s-1.3-0.7-2.1-0.7c-0.8,0-1.6,0-2.2-0.4c-0.8-0.5-1.1-1.5-0.9-2.4
												C565,323.9,564.4,326.2,563.8,328.4z"/>
										</g>
										<g class="st11">
											<path class="st6" d="M593.9,293.1c-0.6-0.4-0.8-1.3-1-2c-0.2-0.7-0.4-1.5-1.1-1.9c-2.9,1.8-1.3,7.2-4.2,9
												c-0.6,0.3-1.3,0.5-1.6,1.1c-0.3,0.5-0.1,1.2,0.3,1.7c0.4,0.4,1,0.7,1.6,0.8c2.3,0.4,4.8-0.8,6.2-2.7
												c1.1-1.6,1.9-4.1,1.4-6C595,293.4,594.4,293.5,593.9,293.1z"/>
											<path class="st6" d="M563.8,328.4c-0.1,0.2-0.1,0.5,0.1,0.6c0.2,0.2,0.6-0.1,0.8-0.4c1.2-1.7,3.6-2.5,5.6-1.8
												c0.8,0,1-1.2,0.5-1.8s-1.3-0.7-2.1-0.7c-0.8,0-1.6,0-2.2-0.4c-0.8-0.5-1.1-1.5-0.9-2.4
												C565,323.9,564.4,326.2,563.8,328.4z"/>
										</g>
									</g>
									<g>
										<path class="st5" d="M602.2,292.4c-1.7-0.2-3.4-0.3-4.8-1.1c-1.8-1.1-3-3.3-5.1-3.4c-1.9-0.1-3.2,1.6-4.3,3.1
											c-0.1-2.3,1.6-4.5,3.7-5.3c2.1-0.9,4.6-0.6,6.8,0.3c2.1,0.9,4,2.2,5.9,3.6c0.7,0.6,1.5,1.1,2,1.9
											C608.6,295.3,603.7,292.6,602.2,292.4z"/>
										<path class="st10" d="M602.2,292.4c-1.7-0.2-3.4-0.3-4.8-1.1c-1.8-1.1-3-3.3-5.1-3.4c-1.9-0.1-3.2,1.6-4.3,3.1
											c-0.1-2.3,1.6-4.5,3.7-5.3c2.1-0.9,4.6-0.6,6.8,0.3c2.1,0.9,4,2.2,5.9,3.6c0.7,0.6,1.5,1.1,2,1.9
											C608.6,295.3,603.7,292.6,602.2,292.4z"/>
									</g>
								</g>
								<g class="st9">
									<path class="st5" d="M572.7,346c0.1-0.2,0.2-0.4,0.3-0.6C572.8,345.6,572.7,345.8,572.7,346z"/>
									<path class="st5" d="M575.5,331.4c-0.2-2.3,0.1-4.7,0-7c-0.1-2.3-0.7-4.8-2.4-6.4c-2.4-2.3-9.1-1.1-6.9,3.2
										c0.6,1.2,2.2,1.8,3.5,1.3c1.2-0.5,1.9-2.2,1.2-3.4c2.7,4.1,2.5,9.9-0.6,13.8c3.5,3,4.6,8.4,2.7,12.5c0.4-0.3,1.1-0.4,1.6,0
										c0.7,0.5,0.9,1.4,1.2,2.1c0.3,0.8,0.9,1.6,1.8,1.5c1.1-2.8,0.8-5.9,0-8.9C576.8,337.3,575.8,334.4,575.5,331.4z"/>
									<path class="st5" d="M599.9,287.6c-1.3-1-2.8-1.7-4.5-1.9L599.9,287.6z"/>
									<path class="st5" d="M611,317.2c-0.4-1.6-1.1-3.1-1.5-4.7c-1-3.7-0.4-7.6-0.9-11.4c-0.6-4.9-3.2-9.6-7-12.7l-1.7-0.7
										c1.6,1.2,2.9,3,3.4,4.9c1.3,4.5,1.7,9.2,2.3,13.9c0.9,7.2,2.2,14.3,3.9,21.3C610.7,324.4,611.8,320.7,611,317.2z"/>
									<path class="st5" d="M593.1,300.4c1.2-0.9,1.8-2.4,2-3.9c0.2-1.3,0.1-2.7-0.1-4c-0.1,0.6-0.9,1-1.5,0.9
										c-0.8-0.2-1.3-0.9-1.8-1.6c-0.1,0.4-0.2,0.8-0.3,1.2c0-0.2-0.1-0.4-0.1-0.6l-0.4,0.6c0.7,1.9,1.3,4.1,0.3,5.8
										c-0.5,0.8-1.3,1.4-2.1,2C590.1,301.5,591.9,301.3,593.1,300.4z"/>
									<path class="st5" d="M594.9,292.1c0,0.2,0,0.3,0.1,0.5C595,292.4,595,292.2,594.9,292.1z"/>
									<path class="st5" d="M590,311.2c-3.3-6.5-6.6-13-10.3-19.3c-2.1-3.7-4.4-7.4-7.2-10.5c-1.3-1.4-4.9-4.7-6.9-2.5
										c-1.3,1.4,0.4,4-1.2,5.6c0.4,0,2.2-0.2,2.4,0.1c4.1,5.1,6.4,11.7,6.3,18.3c1.3-1,3.2,0.4,4.2,1.7
										c6.4,8.2,12.4,16.8,17.9,25.6c-1.1-3.9-1.1-8-2.3-11.9C592.3,315.7,591.1,313.4,590,311.2z"/>
									<path class="st5" d="M628.4,327c1.6-4.2,2.8-8.6,3-13.1c0.1-4.1-0.8-8.3-3-11.8c-0.5-0.9-2.8-4.5-4.1-4.2
										c-2.2,0.5,0.7,4.4,1.2,5.3c1.9,3.6,3.9,7.5,3.8,11.6c-0.1,3.2-1.4,6.1-2.5,9.1c-0.7,2.1-1.3,4.3-1.3,6.5
										c-0.2,0.2-0.3,0.5-0.5,0.7c-1.5,1.9-3.5,3.5-5.9,3.9c0.9-2.8,1.8-5.6,2.7-8.4c0.3-1,0.4-2.4-0.1-3.1
										c0.2-0.4,0.3-0.8,0.3-1.2c0-0.8-0.5-1.5-0.8-2.2c-1.3-2.7-0.8-5.9-0.5-8.9c0.4-3.7,0.5-7.5-0.6-11c-1.1-3.5-3.6-6.8-7.1-8
										c0.3,0.3,0.6,0.6,0.9,1l-1.2-0.9c0.7,1.5,1.5,3.1,2.2,4.6c-0.3,0.4-0.5,0.8-0.8,1.2c1.2-0.6,2.8,0.3,3.3,1.5
										c0.6,1.3,0.4,2.7,0.3,4.1c-0.7,7.6-0.3,15.4,1.1,22.9c-0.1,1.8-0.4,3.5-1.4,5c-1,1.6-2.8,2.8-4.7,2.6c0.4-1.8-0.3-4-1.8-5
										c-1.9,2.6-0.8,6.7-0.5,9.8c0.4,4.6,1.2,9.1,2.2,13.6c0.3-3.9,1.1-7.7,2.4-11.4c1,3.7,2.1,7.5,3.1,11.2c0-1,0.1-2.1,0.6-3
										s1.6-1.6,2.6-1.2c0.8,0.3,1.2,1.2,1.6,1.9c2.7,6.4,3.3,13.6,1.9,20.4c1.3,0.7,2.9-0.1,3.6-1.4c0.7-1.3,0.7-2.8,0.7-4.2
										C628.9,352.2,628.6,339.6,628.4,327z"/>
									<path class="st5" d="M596.4,331c-0.6,1.1,1.9,5.3,2.3,6.3c2.1,5.1,4.2,10.2,6.2,15.2c-0.7-6.7-2.3-13.3-4.8-19.5
										C599.7,331.9,597.6,328.9,596.4,331z"/>
									<path class="st5" d="M599.7,304.1c-0.4,0.5-0.9,1.2-1.5,1c-0.6-0.2-0.7-0.9-0.7-1.5c0.1-3.5,0.1-7.1,0.2-10.6
										c-2.9,2-2.5,4.7-2.7,7.8c-0.1,1.8,0.4,10.2-0.8,11.2c2.8-2.4,5.2-5.3,7-8.5C600.7,303,600,303.5,599.7,304.1z"/>
									<g class="st11">
										<path class="st6" d="M572.7,346c0.1-0.2,0.2-0.4,0.3-0.6C572.8,345.6,572.7,345.8,572.7,346z"/>
										<path class="st6" d="M575.5,331.4c-0.2-2.3,0.1-4.7,0-7c-0.1-2.3-0.7-4.8-2.4-6.4c-2.4-2.3-9.1-1.1-6.9,3.2
											c0.6,1.2,2.2,1.8,3.5,1.3c1.2-0.5,1.9-2.2,1.2-3.4c2.7,4.1,2.5,9.9-0.6,13.8c3.5,3,4.6,8.4,2.7,12.5
											c0.4-0.3,1.1-0.4,1.6,0c0.7,0.5,0.9,1.4,1.2,2.1c0.3,0.8,0.9,1.6,1.8,1.5c1.1-2.8,0.8-5.9,0-8.9
											C576.8,337.3,575.8,334.4,575.5,331.4z"/>
										<path class="st6" d="M599.9,287.6c-1.3-1-2.8-1.7-4.5-1.9L599.9,287.6z"/>
										<path class="st6" d="M611,317.2c-0.4-1.6-1.1-3.1-1.5-4.7c-1-3.7-0.4-7.6-0.9-11.4c-0.6-4.9-3.2-9.6-7-12.7l-1.7-0.7
											c1.6,1.2,2.9,3,3.4,4.9c1.3,4.5,1.7,9.2,2.3,13.9c0.9,7.2,2.2,14.3,3.9,21.3C610.7,324.4,611.8,320.7,611,317.2z"/>
										<path class="st6" d="M593.1,300.4c1.2-0.9,1.8-2.4,2-3.9c0.2-1.3,0.1-2.7-0.1-4c-0.1,0.6-0.9,1-1.5,0.9
											c-0.8-0.2-1.3-0.9-1.8-1.6c-0.1,0.4-0.2,0.8-0.3,1.2c0-0.2-0.1-0.4-0.1-0.6l-0.4,0.6c0.7,1.9,1.3,4.1,0.3,5.8
											c-0.5,0.8-1.3,1.4-2.1,2C590.1,301.5,591.9,301.3,593.1,300.4z"/>
										<path class="st6" d="M594.9,292.1c0,0.2,0,0.3,0.1,0.5C595,292.4,595,292.2,594.9,292.1z"/>
										<path class="st6" d="M590,311.2c-3.3-6.5-6.6-13-10.3-19.3c-2.1-3.7-4.4-7.4-7.2-10.5c-1.3-1.4-4.9-4.7-6.9-2.5
											c-1.3,1.4,0.4,4-1.2,5.6c0.4,0,2.2-0.2,2.4,0.1c4.1,5.1,6.4,11.7,6.3,18.3c1.3-1,3.2,0.4,4.2,1.7
											c6.4,8.2,12.4,16.8,17.9,25.6c-1.1-3.9-1.1-8-2.3-11.9C592.3,315.7,591.1,313.4,590,311.2z"/>
										<path class="st6" d="M628.4,327c1.6-4.2,2.8-8.6,3-13.1c0.1-4.1-0.8-8.3-3-11.8c-0.5-0.9-2.8-4.5-4.1-4.2
											c-2.2,0.5,0.7,4.4,1.2,5.3c1.9,3.6,3.9,7.5,3.8,11.6c-0.1,3.2-1.4,6.1-2.5,9.1c-0.7,2.1-1.3,4.3-1.3,6.5
											c-0.2,0.2-0.3,0.5-0.5,0.7c-1.5,1.9-3.5,3.5-5.9,3.9c0.9-2.8,1.8-5.6,2.7-8.4c0.3-1,0.4-2.4-0.1-3.1
											c0.2-0.4,0.3-0.8,0.3-1.2c0-0.8-0.5-1.5-0.8-2.2c-1.3-2.7-0.8-5.9-0.5-8.9c0.4-3.7,0.5-7.5-0.6-11c-1.1-3.5-3.6-6.8-7.1-8
											c0.3,0.3,0.6,0.6,0.9,1l-1.2-0.9c0.7,1.5,1.5,3.1,2.2,4.6c-0.3,0.4-0.5,0.8-0.8,1.2c1.2-0.6,2.8,0.3,3.3,1.5
											c0.6,1.3,0.4,2.7,0.3,4.1c-0.7,7.6-0.3,15.4,1.1,22.9c-0.1,1.8-0.4,3.5-1.4,5c-1,1.6-2.8,2.8-4.7,2.6c0.4-1.8-0.3-4-1.8-5
											c-1.9,2.6-0.8,6.7-0.5,9.8c0.4,4.6,1.2,9.1,2.2,13.6c0.3-3.9,1.1-7.7,2.4-11.4c1,3.7,2.1,7.5,3.1,11.2c0-1,0.1-2.1,0.6-3
											s1.6-1.6,2.6-1.2c0.8,0.3,1.2,1.2,1.6,1.9c2.7,6.4,3.3,13.6,1.9,20.4c1.3,0.7,2.9-0.1,3.6-1.4c0.7-1.3,0.7-2.8,0.7-4.2
											C628.9,352.2,628.6,339.6,628.4,327z"/>
										<path class="st6" d="M596.4,331c-0.6,1.1,1.9,5.3,2.3,6.3c2.1,5.1,4.2,10.2,6.2,15.2c-0.7-6.7-2.3-13.3-4.8-19.5
											C599.7,331.9,597.6,328.9,596.4,331z"/>
										<path class="st6" d="M599.7,304.1c-0.4,0.5-0.9,1.2-1.5,1c-0.6-0.2-0.7-0.9-0.7-1.5c0.1-3.5,0.1-7.1,0.2-10.6
											c-2.9,2-2.5,4.7-2.7,7.8c-0.1,1.8,0.4,10.2-0.8,11.2c2.8-2.4,5.2-5.3,7-8.5C600.7,303,600,303.5,599.7,304.1z"/>
									</g>
								</g>
							</g>
							<g>
								<g>
									<g>
										<path class="st12" d="M606.9,292.5c1.7,6.2,2.5,12.5,2.6,18.9c0,1.1,0,2.2,0.3,3.2c0.3,1,1.1,1.9,2.2,2.2"/>
										<path class="st12" d="M620.2,298.7c2.8,5.9-0.1,19.1,0.1,20c0.2,0.9,0.7,1.8,1.6,2.3"/>
										<g>
											<path class="st12" d="M595.9,291.7c-0.3,1.9-0.6,4.1-0.9,5.9c-2.2-1.9-3.6-4.6-3.8-7.5"/>
											<path class="st12" d="M577.8,342.1c-0.7,0.3-1.4,0.6-2,0.9"/>
											<path class="st12" d="M578.3,343.7c-0.3,1.6-0.3,3.2,0,4.8"/>
											<path class="st12" d="M590.3,326.1c0.8,1.4,1.5,2.7,2.3,4.1"/>
											<path class="st12" d="M594.6,311.2c0.7-1.1,1.5-2.1,2.2-3.2"/>
											<path class="st12" d="M626.2,326.1c-0.2,0.8-0.5,1.7-0.7,2.5"/>
											<path class="st12" d="M620.7,319.3c0.7-2.1,1.3-4.2,2-6.3"/>
											<path class="st12" d="M627.3,308c1.2-0.7,2.9-0.1,3.4,1.1"/>
											<path class="st12" d="M613.8,297.2c1.6-0.5,3.3,0,4.5,1"/>
											<path class="st12" d="M571.7,303.5c1.5-1.6,3.7-2.5,5.9-2.2"/>
										</g>
									</g>
									<path class="st12" d="M563.2,285.7c1.3-1,3.1-1.4,4.8-1.1"/>
									<path class="st6" d="M565,327.9c-1.1,0.9-2,1.9-2.8,3.1L565,327.9z"/>
								</g>
								<path class="st12" d="M565.9,323.6c1.5-1.1,3.9,1.3,5.2,0.1c0.5-0.5,0.6-1.3,0.5-2c-0.1-0.7-0.4-1.4-0.3-2.2"/>
							</g>
						</g>
					</g>
					<path class="st12" d="M608,317.1c1.8,3.7,2.2,8.1,1,12.1"/>
					<path class="st12" d="M618.9,322.9c0.3,1.8,0,3.6-0.9,5.2"/>
				</g>
			</g>
			<g>
				<g>
					<g>
						<g>
							<g>
								<path class="st13" d="M604.2,413.8l-9.9-31c-9.3-9.5-26.2-18.2-27.7-31.4c-1.9-16.9-4.5-16.3-4.5-20.5
									c0-0.2,1.2-2.1,2.6-6.4c0.5-1.4,0.7-3.4,0.9-5.1c0.3-1.8,1.8-3.1,3.6-2.9c1.2,0.1,2.4,0.5,3.3,1.3c1.7,1.5,2.6,3.7,2.8,6
									c0.2,2.2-0.1,4.5-0.5,6.7c1.8,3.4,2.8,7.7,3.6,11.5c0.8-3.2,1.4-6.4,2.2-9.5c0.2-0.1,0.1-0.4,0.3-0.5
									c-1.6-2.9-0.4-2.9-3.7-9.4c-5.5-11-11.5-21.5-16.2-35.5c-0.4-1.1-0.5-2.9-0.2-4c1.1-4.2,5.3-3.5,7.3-1.3
									c0.5,0.6,0.9,1.3,1.3,2c2.3,4.9,6.9,12.5,10.2,16.8l11.3,15c0,0,3.4-3.2,3.8-4.5l0,0c0.4-1.4,0-12,0-12s-0.7,2-2.5,2
									c-1.3,0-3.9,0.9-5.9-1.1c-1.6-1.6-1.8-4.2-0.6-6.2l4.2-6.6c0,0,2.9-2.9,7.2-1.4c4.3,1.6,8.6,5.2,8.6,5.2s3.8-0.5,7.2,0.9
									c3.4,1.4,7.1,5.7,7.1,5.7s3.8,0,5.7,1.1c0.5,0.3,6.9,9,5.3,16.2c-1,4.3-1.3,10.5-1.8,12.2l-0.1,41.7l7.8,27.7"/>
							</g>
							<g>
								<g>
									<g>
										<path class="st13" d="M606.9,292.5c1.7,6.2,2.5,12.5,2.6,18.9c0,1.1,0,2.2,0.3,3.2c0.3,1,1.1,1.9,2.2,2.2"/>
										<path class="st13" d="M620.2,298.7c2.8,5.9-0.1,19.1,0.1,20c0.2,0.9,0.7,1.8,1.6,2.3"/>
										<g>
											<path class="st13" d="M595.9,291.7c-0.3,1.9-0.6,4.1-0.9,5.9c-2.2-1.9-3.6-4.6-3.8-7.5"/>
											<path class="st13" d="M577.8,342.1c-0.7,0.3-1.4,0.6-2,0.9"/>
											<path class="st13" d="M578.3,343.7c-0.3,1.6-0.3,3.2,0,4.8"/>
											<path class="st13" d="M590.3,326.1c0.8,1.4,1.5,2.7,2.3,4.1"/>
											<path class="st13" d="M594.6,311.2c0.7-1.1,1.5-2.1,2.2-3.2"/>
											<path class="st13" d="M626.2,326.1c-0.2,0.8-0.5,1.7-0.7,2.5"/>
											<path class="st13" d="M620.7,319.3c0.7-2.1,1.3-4.2,2-6.3"/>
											<path class="st13" d="M627.3,308c1.2-0.7,2.9-0.1,3.4,1.1"/>
											<path class="st13" d="M613.8,297.2c1.6-0.5,3.3,0,4.5,1"/>
											<path class="st13" d="M571.7,303.5c1.5-1.6,3.7-2.5,5.9-2.2"/>
										</g>
									</g>
									<path class="st13" d="M563.2,285.7c1.3-1,3.1-1.4,4.8-1.1"/>
									<path class="st13" d="M565,327.9c-1.1,0.9-2,1.9-2.8,3.1"/>
								</g>
								<path class="st13" d="M565.9,323.6c1.5-1.1,3.9,1.3,5.2,0.1c0.5-0.5,0.6-1.3,0.5-2c-0.1-0.7-0.4-1.4-0.3-2.2"/>
							</g>
						</g>
					</g>
					<path class="st13" d="M608,317.1c1.8,3.7,2.2,8.1,1,12.1"/>
					<path class="st13" d="M618.9,322.9c0.3,1.8,0,3.6-0.9,5.2"/>
				</g>
			</g>
			<path class="st2" d="M527.7,337.1c0.1,0.7,0.1,1.3-0.1,2c-0.6,2.8-2.4,11.1-3,15.7c-0.8,5.5-9.7,22.7-9.7,22.7
				s-8.2,10.2-12.4,15.6c-2.1,2.6-5.3,13.2-8.1,23.3c-3.5-1.1-6.9-2.2-10.4-3.4c-2.8-1-5.7-2.1-8.5-3.2c-3.9-1.6-9-4-14.8-7.2
				c1.6-5.7,2.6-10.1,2.6-10.3c0-0.6,3.4-7.2,3.4-7.2l-3-39.1l-1.8-6c-0.9-3.1-1.5-6.2-1.7-9.4c-0.4-4.8,0-9.7,1.2-14.5l5.1-7.6
				l2.4-0.2l7.4-10.4c0,0,4-1.2,5,1.8c1,3-3.3,8.7-3.3,8.7l-1.5,9.3l3.6,8.7l1.9,0.7c0,0,0.6-15.4,0.2-18.4l3.9-14
				c0,0,2.4-4.7,3.1-7c0.7-2.4,4.9-4.7,7.4-0.6c0,0,1.4,2.1,0.4,5c-1,2.9-1.8,5.1-1.8,5.1s-0.9,11.9-1.2,12.2
				c-0.3,0.3,1.7,17.7,1.7,17.7l1.5,0.7l0.5-16.6l3.2-15.6c0,0-0.3-7.5,5-6.6c0,0,2.5-0.3,3.9,2.4c1.4,2.7,0.1,20.6,0.1,20.6
				l1.3,18.5l2.1,14.3l2.5-9.8c0,0,0.1-14,9-15.2c0,0,2.6-0.5,3.2,1.4c0.5,1.8-1.3,5.6-1,9.2C527.1,332.8,527.5,335.6,527.7,337.1z"
				/>
			<g>
				<g>
					<defs>
						<path id="XMLID_6_" d="M525,319.7c-0.4-1.9-3.1-1.6-3.1-1.6c-8.9,0.5-10.1,14.5-10.1,14.5l-3.2,9.6l-1-14.4l0.1-18.6
							c0,0,2.7-17.8,1.5-20.6c-1.2-2.8-3.7-2.7-3.7-2.7c-5.2-1.3-5.5,6.2-5.5,6.2l-4.4,15.3l-1.8,16.5l-1.5-0.8
							c0,0-0.7-17.5-0.4-17.8c0.3-0.3,2.1-12.1,2.1-12.1s1-2.2,2.2-5c1.2-2.8,0-5,0-5c-2.1-4.3-6.5-2.3-7.4,0
							c-0.9,2.3-3.6,6.8-3.6,6.8l-5,13.7c0.2,3.1-1.6,18.4-1.6,18.4l-1.8-0.8l-2.9-9l2.2-9.2c0,0,4.8-5.3,4-8.4
							c-0.8-3.1-4.9-2.2-4.9-2.2l-8.2,9.8h-2.4l-5.7,7.2c-1.5,4.6-2.3,9.5-2.3,14.3c0,3.2,0.3,6.4,1,9.5l1.3,6.1v39.2
							c0,0-3.9,6.3-3.9,6.9c0,0.3-1.6,5.2-3.8,11.4c9.8,5.8,18.2,10.2,24.2,12.6c2.8,1.1,5.6,2.2,8.5,3.2
							c3.6-10.1,7.8-20.9,10.1-23.4c4.6-5,13.6-14.6,13.6-14.6s10.2-16.4,11.4-21.9c1-4.5,3.4-12.6,4.2-15.4
							c0.2-0.6,0.3-1.3,0.2-1.9c-0.1-1.5-0.2-4.3-0.2-6.9C523.2,325.2,525.4,321.6,525,319.7z"/>
					</defs>
					<use xlink:href="#XMLID_6_"  style="overflow:visible;fill:#FFFFFF;"/>
					<clipPath id="XMLID_3_">
						<use xlink:href="#XMLID_6_"  style="overflow:visible;"/>
					</clipPath>
					<path class="st14" d="M463.7,315.8c1.5-1.9,4.7-2.6,6.4-1c1,1,1.4,2.4,1.6,3.8c0.3,1.4,0.5,2.8,1.4,3.9
						c0.9,1.1,2.7,1.5,3.7,0.5c0.1,2.1,0.3,4.1,0.4,6.2c2.2-3.8,3.3-8.3,3.3-12.7c0-2.1-0.4-4.3,0.1-6.4c0.5-2.1,2.1-4.1,4.3-4.2
						c2.4-0.1,4.3,2.2,4.7,4.5c0.5,2.3-0.1,4.7-0.2,7.1c-0.2,3.6,0.5,7.3,2,10.6c0.5-1,1-2,1.5-3c0.5,2,0.9,4.1,1.4,6.1
						c0.4-4.5,0.8-8.9,1.2-13.4c0.1-1.3,0.2-2.6,0.8-3.7c0.6-1.1,1.8-2,3-1.9c1.7,0.2,2.7,2,3.2,3.6c4.3,12,2.5,25.2,0.7,37.9
						c1.2,0.2,2.2-1,2.5-2.1c0.3-1.2,0.2-2.4,0.6-3.5c0.4-1.1,1.8-2,2.8-1.4c1.5,0.9,0.4,3.8,2,4.6c0.5-3.7,2-7.3,4.3-10.3
						c1-1.4,2.6-2.7,4.3-2.3c1.2,0.3,2,1.6,2.2,2.9c0.2,1.3,2-4,1.7-2.7c0.7-7.3-0.7-8,0-15.3c0.1-1.3,2.3-3.6,1.4-4.6
						c-0.9-0.9-3.4-2.3-4.6-1.7c-1.1,0.5-4.9,2.4-5.6,3.4c-4.6,6.4-4.3,15.7-5.8,23.5c-1.2-11.9-2.5-23.9-0.3-35.6
						c1.2-6.5,3.4-13.2,1.3-19.4c-1-2.8-3.5-5.7-6.4-5.2c-2.4,0.4-3.8,2.8-4.8,5.1c-3.3,7.5-4.7,15.6-6.1,23.6
						c1.8-8.1,3.5-16.1,5.3-24.2c0.5-2.1,0.9-4.3,0.5-6.4c-0.4-2.1-1.8-4.2-3.9-4.6c-2.1-0.4-4.2,0.8-5.7,2.2
						c-5.6,5.1-7.7,13-9.5,20.3c0.6-1.9,1.3-3.9,1.1-5.9c-0.2-2-1.5-4.1-3.5-4.5c-2.6-0.6-4.9,1.7-6,4.1c-1.1,2.4-1.7,5.1-3.5,7
						c-1.3-1.5-3.8-1.4-5.4-0.3c-1.6,1.1-2.6,2.9-3.4,4.7c-3,6.6-4.2,14-3.7,21.2c1.3-2.9,4.6-4.8,7.8-4.4c-0.2-1.6-0.4-3.2-0.6-4.8
						"/>
					<g class="st15">
						<g>
							<path class="st5" d="M469.9,331.1c-0.1,1.2-0.2,2.4-0.2,3.6c0.4-1,1.8-1.4,2.6-0.7c-0.2-0.8,0.3-1.5,0.6-2.2
								c0.3-0.7,0.3-1.7-0.4-2.1c-0.8-0.4-1.7,0.5-2.1,1.4c0-0.3-0.1-0.6-0.1-0.9L469.9,331.1z"/>
						</g>
						<g>
							<path class="st5" d="M483.5,329c-1,1.1-1.6,2.5-1.9,3.9c0.4-0.4,0.8-0.8,1.4-1c0.5-0.2,1.2-0.1,1.6,0.3
								c0.2,0.3,0.3,0.7,0.6,0.9c0.3,0.2,0.7,0,0.9-0.3c0.2-0.3,0.2-0.7,0.2-1c0-0.7,0.1-1.4-0.1-2.1c-0.2-0.7-0.7-1.3-1.4-1.4
								c-0.7-0.1-1.5,0.3-1.5,1L483.5,329z"/>
						</g>
						<g>
							<path class="st5" d="M496.6,332.3c-1,1.4-1.7,3-2,4.8c0.7-0.1,1.3-0.6,1.8-1c0.6-0.4,1.2-0.9,1.9-0.9
								c0.7-0.1,1.5,0.5,1.5,1.2c-0.1-0.8,0-1.6,0.1-2.4c0.1-0.8,0.1-1.6-0.2-2.4c-0.3-0.7-1-1.4-1.8-1.3c-0.8,0-1.5,1-1.1,1.7
								L496.6,332.3z"/>
						</g>
						<g>
							<path class="st5" d="M460.5,337c-0.7,1.4-1.1,2.9-1.1,4.4c0-0.7,0.7-1.3,1.4-1.4c0.7-0.1,1.4,0.2,2,0.5
								c0.1-0.7,0.3-1.5,0.1-2.2s-0.7-1.4-1.4-1.5c-0.7-0.1-1.5,0.6-1.3,1.3c-0.1-0.2-0.1-0.4-0.2-0.5L460.5,337z"/>
						</g>
					</g>
					<path id="XMLID_7_" class="st16" d="M463.7,315.8c1.5-1.9,4.7-2.6,6.4-1c1,1,1.4,2.4,1.6,3.8c0.3,1.4,0.5,2.8,1.4,3.9
						c0.9,1.1,2.7,1.5,3.7,0.5c0.1,2.1,0.3,4.1,0.4,6.2c2.2-3.8,3.3-8.3,3.3-12.7c0-2.1-0.4-4.3,0.1-6.4c0.5-2.1,2.1-4.1,4.3-4.2
						c2.4-0.1,4.3,2.2,4.7,4.5c0.5,2.3-0.1,4.7-0.2,7.1c-0.2,3.6,0.5,7.3,2,10.6c0.5-1,1-2,1.5-3c0.5,2,0.9,4.1,1.4,6.1
						c0.4-4.5,0.8-8.9,1.2-13.4c0.1-1.3,0.2-2.6,0.8-3.7c0.6-1.1,1.8-2,3-1.9c1.7,0.2,2.7,2,3.2,3.6c4.3,12,2.5,25.2,0.7,37.9
						c1.2,0.2,2.2-1,2.5-2.1c0.3-1.2,0.2-2.4,0.6-3.5c0.4-1.1,1.8-2,2.8-1.4c1.5,0.9,0.4,3.8,2,4.6c0.5-3.7,2-7.3,4.3-10.3
						c1-1.4,2.6-2.7,4.3-2.3c1.2,0.3,2,1.6,2.2,2.9c0.2,1.3,2-4,1.7-2.7c0.7-7.3-0.7-8,0-15.3c0.1-1.3,2.3-3.6,1.4-4.6
						c-0.9-0.9-3.4-2.3-4.6-1.7c-1.1,0.5-4.9,2.4-5.6,3.4c-4.6,6.4-4.3,15.7-5.8,23.5c-1.2-11.9-2.5-23.9-0.3-35.6
						c1.2-6.5,3.4-13.2,1.3-19.4c-1-2.8-3.5-5.7-6.4-5.2c-2.4,0.4-3.8,2.8-4.8,5.1c-3.3,7.5-4.7,15.6-6.1,23.6
						c1.8-8.1,3.5-16.1,5.3-24.2c0.5-2.1,0.9-4.3,0.5-6.4c-0.4-2.1-1.8-4.2-3.9-4.6c-2.1-0.4-4.2,0.8-5.7,2.2
						c-5.6,5.1-7.7,13-9.5,20.3c0.6-1.9,1.3-3.9,1.1-5.9c-0.2-2-1.5-4.1-3.5-4.5c-2.6-0.6-4.9,1.7-6,4.1c-1.1,2.4-1.7,5.1-3.5,7
						c-1.3-1.5-3.8-1.4-5.4-0.3c-1.6,1.1-2.6,2.9-3.4,4.7c-3,6.6-4.2,14-3.7,21.2c1.3-2.9,4.6-4.8,7.8-4.4c-0.2-1.6-0.4-3.2-0.6-4.8
						"/>
					<g class="st17">
						<g>
							<path class="st6" d="M469.9,331.1c-0.1,1.2-0.2,2.4-0.2,3.6c0.4-1,1.8-1.4,2.6-0.7c-0.2-0.8,0.3-1.5,0.6-2.2
								c0.3-0.7,0.3-1.7-0.4-2.1c-0.8-0.4-1.7,0.5-2.1,1.4c0-0.3-0.1-0.6-0.1-0.9L469.9,331.1z"/>
						</g>
						<g>
							<path class="st6" d="M483.5,329c-1,1.1-1.6,2.5-1.9,3.9c0.4-0.4,0.8-0.8,1.4-1c0.5-0.2,1.2-0.1,1.6,0.3
								c0.2,0.3,0.3,0.7,0.6,0.9c0.3,0.2,0.7,0,0.9-0.3c0.2-0.3,0.2-0.7,0.2-1c0-0.7,0.1-1.4-0.1-2.1c-0.2-0.7-0.7-1.3-1.4-1.4
								c-0.7-0.1-1.5,0.3-1.5,1L483.5,329z"/>
						</g>
						<g>
							<path class="st6" d="M496.6,332.3c-1,1.4-1.7,3-2,4.8c0.7-0.1,1.3-0.6,1.8-1c0.6-0.4,1.2-0.9,1.9-0.9
								c0.7-0.1,1.5,0.5,1.5,1.2c-0.1-0.8,0-1.6,0.1-2.4c0.1-0.8,0.1-1.6-0.2-2.4c-0.3-0.7-1-1.4-1.8-1.3c-0.8,0-1.5,1-1.1,1.7
								L496.6,332.3z"/>
						</g>
						<g>
							<path class="st6" d="M460.5,337c-0.7,1.4-1.1,2.9-1.1,4.4c0-0.7,0.7-1.3,1.4-1.4c0.7-0.1,1.4,0.2,2,0.5
								c0.1-0.7,0.3-1.5,0.1-2.2s-0.7-1.4-1.4-1.5c-0.7-0.1-1.5,0.6-1.3,1.3c-0.1-0.2-0.1-0.4-0.2-0.5L460.5,337z"/>
						</g>
					</g>
				</g>
				<g>
					<path class="st13" d="M451.2,397c2.2-6.2,3.8-11.1,3.8-11.4c0-0.6,3.9-6.9,3.9-6.9v-39.2l-1.3-6.1c-0.7-3.1-1-6.3-1-9.5
						c0-4.9,0.8-9.7,2.3-14.3l5.7-7.2h2.4l8.2-9.8c0,0,4.1-0.9,4.9,2.2c0.8,3.1-4,8.4-4,8.4l-2.2,9.2l2.9,9l1.8,0.8
						c0,0,1.8-15.3,1.6-18.4l5-13.7c0,0,2.7-4.5,3.6-6.8c0.9-2.3,5.3-4.3,7.4,0c0,0,1.2,2.2,0,5c-1.2,2.8-2.2,5-2.2,5
						s-1.8,11.8-2.1,12.1c-0.3,0.3,0.4,17.8,0.4,17.8l1.5,0.8l1.8-16.5l4.4-15.3c0,0,0.3-7.5,5.5-6.2c0,0,2.5-0.1,3.7,2.7
						c1.2,2.8-1.5,20.6-1.5,20.6l-0.1,18.6l1,14.4l3.2-9.6c0,0,1.2-14,10.1-14.5c0,0,2.7-0.3,3.1,1.6c0.4,1.9-1.7,5.5-1.7,9.1
						c0,2.5,0.1,5.4,0.2,6.9c0,0.7,0,1.3-0.2,1.9c-0.8,2.8-3.2,10.9-4.2,15.4c-1.2,5.5-11.4,21.9-11.4,21.9s-9,9.6-13.6,14.6
						c-2.3,2.5-6.5,13.3-10.1,23.4"/>
				</g>
				<path class="st3" d="M478.5,323.6c0.5,1.9,0,4-1.3,5.4"/>
				<path class="st3" d="M463.3,336.8c1.3-2,2.6-4.8,2.2-7.1c-0.7-4.6-2.8-10-1.8-14.6c0.6-2.9,1.2-5.9,1.8-8.8"/>
				<path class="st13" d="M500.9,293c1.5-0.4,3.2-0.4,4.7,0c0-0.4,0-0.9,0.1-1.3"/>
				<path class="st13" d="M488.5,287.1c0.9,0.6,2.2,0.7,3.2,0.2c1-0.5,1.6-1.6,1.6-2.7"/>
				<path class="st13" d="M522.6,319.9c-2.6,0.6-4.6,3.3-4.3,6c0.8,0.2,1.5,0.5,2.3,0.7"/>
				<path class="st3" d="M492.2,321c0.1,1.6-0.1,5.4,0,7"/>
				<path class="st3" d="M494,323.2c-0.2,2.6-0.4,5.2-0.6,7.8c0-0.3,0-0.7,0-1"/>
				<path class="st3" d="M508.4,345.1c0.7,2.8,0.4,5.9-0.9,8.6"/>
				<path class="st13" d="M484.5,331.5c-2.1,2.3-1.8,7.7-0.3,10.6"/>
				<path class="st13" d="M499.7,335.2c0.1,2.4-0.8,4.9-2.5,6.9"/>
				<path class="st13" d="M469.5,332.6c-0.3,2.3,0.2,4.7,1.4,6.6"/>
				<path class="st13" d="M460.7,339.6c-0.1,1.8,0.4,3.6,1.5,5"/>
				<path class="st13" d="M472.7,296.1c1.1-0.5,2.4-0.3,3.3,0.5c0.4-0.5,0.8-1,1.2-1.5"/>
				<path class="st13" d="M482.4,303.1c1.6-1,3.8-0.6,5,0.8"/>
				<path class="st13" d="M497.5,307.8c1.7-0.8,3.7-0.7,5.4,0.1"/>
				<path class="st13" d="M463.9,315.7c1-1.7,3-2.7,4.9-2.5"/>
				<path class="st13" d="M457.5,324.7c0-1.2,1-2.3,2.2-2.5"/>
			</g>
		</g>
		<g>
			<circle class="st18" cx="700.8" cy="217.8" r="39.1"/>
			<g>
				<g>
					<g>
						<path class="st2" d="M745.1,218.8c-8.3,13.7-11.3,11.8-39.8,25.5c-14.4,6.9-28.4-15.3-19-38.2c0.5-1.1,4.5-6.7,4.5-6.7
							c1.7-7.6,8-13.9,15.5-15.7c7.5-1.8,16,1.1,20.9,7c5.3-4.7,13.1-6.5,20-4.8c0.3,1,0.6,1.9,0.9,2.8c0.1,0.4,0.2,0.7,0.3,1.1
							c0.4,1.1,0.7,2.2,1,3.3c0.6,2.1,1.2,4.2,1.7,6.4c-3.1-0.9-6.3-0.9-9.3,0.6c-2.1,1-3.8,2.7-6,3.5c-2.2,0.8-5.2,0.4-6-1.8
							c1,4.4,5.6,3.1,10,3.9C746.9,207.1,748.6,213,745.1,218.8z"/>
					</g>
					<g>
						<path class="st19" d="M732.2,212c0,0,7-0.9,10.3-0.5c2.1,0.3,3.4,1.5,4,2.3c0.3,0.4,0.5,0.8,0.5,1.2l0.4,5.5
							c0,0.6-0.2,1.2-0.6,1.7c-1.4,1.4-5.5,4-17.7,5C712,228.6,732.2,212,732.2,212z"/>
						<g>
							<path class="st19" d="M727.1,197.9c2,2.5,5.7,8,5.7,16.6c0,6.5-7.6,28.8-26.9,31.5c-20.5,2.9-36.9-14.7-33.4-35.7
								C675,195.7,710.7,177.5,727.1,197.9z"/>
							<ellipse class="st6" cx="702.1" cy="213.1" rx="29.7" ry="28.1"/>
							<ellipse class="st8" cx="702" cy="214.5" rx="24.4" ry="23.1"/>
							<path class="st18" d="M731.8,213.1c0-15.5-13.3-28.1-29.7-28.1c-16.4,0-29.7,12.6-29.7,28.1"/>
							<path class="st18" d="M724,232.1c4.9-5,7.8-11.7,7.8-19"/>
							<path class="st18" d="M681.3,233.1c5.4,5,12.7,8.1,20.8,8.1c5,0,9.7-1.2,13.8-3.2"/>
							<path class="st18" d="M677,228.1c0.4,0.6,0.8,1.1,1.2,1.7"/>
							<path class="st18" d="M672.4,213.1c0,4.3,1,8.4,2.8,12"/>
						</g>
						<path class="st19" d="M745.7,220.7c0,0-5.3-3.7-13.9-0.3"/>
						<path class="st19" d="M741.1,223.3c-2,0.6-5.4,1.3-11,1.7"/>
						<path class="st19" d="M743.9,222.2c0,0-0.3,0.3-1.3,0.7"/>
					</g>
				</g>
				<g>
					<g>
						<path class="st6" d="M748.6,189.8c-0.1-0.4-0.2-0.7-0.3-1.1c-1.8-5.6-4.1-11.7-6.9-18.2c-0.5-1.2-1.1-2.4-1.6-3.6
							c-0.2,0-0.4,0-0.6,0.1c-2.7,0.3-5.6,0.6-7.8,2.2c-2.2,1.6-3.6,4.8-2.1,7.1c1.4,2.3,5.1,3.6,4.5,6.2c-6.1,3.4-13.4,3-20.2,4.7
							c-4,1-7.9,2.9-11.2,5.3c0,0,0,0,0,0c-1.1,0.8-2.1,1.7-3.1,2.6c-0.4,0.4-0.9,0.8-1.2,1.3c0,0,0,0,0,0c-0.6,0.7-1,1.5-1.1,2.4
							c-0.2,2.5,2.1,4.2,4.5,5.3c0.5,0.2,0.4,0.9,0,1c-1.6,0.6-3.2,1.4-4.4,2.5c0,0,0,0,0,0c-0.8,0.7-0.1,2,0.9,1.9
							c0.1,0,0.3,0,0.4,0c1-0.1,2,0,2.9,0.3c1.4,0.5,2.5,1.5,2.6,2.7c0.2,1.9-2,3.6-4.9,3.9c-0.7,0.1-0.2,0.9,0.8,1.1
							c2,0.4,4.1,0,6-0.5c2.4-0.6,4.9-1.4,6.2-3.4c0.6-0.9,0.7-2,0.6-3c-0.2-1.4-1.1-2.6-2.5-2.8c4.4-0.5,8.7-1.4,13-2.6h0l1.3-0.4
							c1.3-0.4,2.6-0.8,3.7-1.6c0.7-0.5,1.2-1,1.6-1.8c1-1.9-0.4-4.9-2.5-4.5c6.1-2.4,12.5-3.8,18.7-6
							C746.6,190.6,747.6,190.3,748.6,189.8z"/>
					</g>
				</g>
			</g>
		</g>
		<g>
			<path class="st19" d="M705.6,98.8l-316.7,1.4l4.8-7.2c2.3-3.5,6.2-5.5,10.3-5.5h286.6c3.8,0,7.3,1.7,9.7,4.6L705.6,98.8z"/>
			<g>
				<g>
					<path class="st20" d="M550.9,228.1h-13.5c-18.9,0-34.2-15.3-34.2-34.2v-13.5c0-18.9,15.3-34.2,34.2-34.2h13.5
						c18.9,0,34.2,15.3,34.2,34.2V194C585,212.8,569.8,228.1,550.9,228.1z"/>
					<path class="st21" d="M518.1,194.1v11.6c0,3.7,3,6.6,6.6,6.6h39.9c3.6,0,6.6-2.9,6.6-6.6c0-5.2,0.3-11.7,0.3-11.7H518.1z"/>
					<g>
						<g>
							<path class="st22" d="M664.1,198H430.8c-2.5,0-4.7-1.5-5.6-3.8l-36-92.4c-0.9-2.4,0.8-5,3.4-5h309.6c2.6,0,4.4,2.6,3.4,5
								l-36,92.4C668.8,196.5,666.6,198,664.1,198z"/>
							<polygon class="st8" points="665.9,189.9 428.5,189.9 395.8,102.6 698.4,102.6 							"/>
						</g>
					</g>
				</g>
				<rect x="518.3" y="197.9" class="st8" width="52.9" height="3.6"/>
				<g>
					<g>
						<path class="st5" d="M631.2,186.2H463.5c-0.9,0-1.8-0.4-2-0.9l-23.8-75.8c-0.3-0.8,0.5-1.5,1.7-1.5h215.9
							c1.2,0,1.9,0.7,1.7,1.5l-23.8,75.8C633,185.8,632.1,186.2,631.2,186.2z"/>
						<polygon class="st8" points="630.6,184.5 464.2,184.5 443.9,117.9 650.8,117.9 						"/>
						<g>
							<path class="st6" d="M488.1,134.4h-31.5c-0.8,0-1.3,0.4-1.1,0.9c0.1,0.5,0.9,0.9,1.7,0.9h31.3c0.8,0,1.3-0.4,1.2-0.9
								C489.5,134.8,488.8,134.4,488.1,134.4z"/>
							<path class="st6" d="M489.1,140.2h-26.8c-0.8,0-1.3,0.4-1.1,0.9c0.1,0.5,0.9,0.9,1.6,0.9h26.6c0.8,0,1.3-0.4,1.2-0.9
								C490.6,140.6,489.9,140.2,489.1,140.2z"/>
							<path class="st10" d="M490.1,145.7h-30.4c-0.8,0-1.2,0.4-1.1,0.9c0.1,0.5,0.9,0.9,1.6,0.9h30.2c0.7,0,1.3-0.4,1.2-0.9
								C491.6,146.1,490.9,145.7,490.1,145.7z"/>
							<path class="st6" d="M491.1,151.1h-17.9c-0.7,0-1.2,0.4-1.1,0.8c0.1,0.5,0.8,0.8,1.5,0.8h17.8c0.7,0,1.3-0.4,1.2-0.8
								C492.5,151.5,491.8,151.1,491.1,151.1z"/>
							<path class="st6" d="M492.1,156.3h-29.4c-0.7,0-1.2,0.4-1.1,0.8c0.1,0.4,0.8,0.8,1.5,0.8h29.2c0.7,0,1.2-0.4,1.2-0.8
								C493.4,156.6,492.8,156.3,492.1,156.3z"/>
							<path class="st6" d="M493,161.3h-23.7c-0.7,0-1.2,0.4-1.1,0.8c0.1,0.4,0.8,0.8,1.5,0.8h23.6c0.7,0,1.2-0.3,1.1-0.8
								C494.3,161.6,493.7,161.3,493,161.3z"/>
							<path class="st6" d="M493.9,166.1h-23.3c-0.7,0-1.2,0.3-1.1,0.8c0.1,0.4,0.8,0.8,1.5,0.8h23.2c0.7,0,1.2-0.3,1.1-0.8
								C495.2,166.5,494.6,166.1,493.9,166.1z"/>
							<path class="st6" d="M494.7,170.8h-25.5c-0.7,0-1.2,0.3-1,0.7c0.1,0.4,0.8,0.7,1.4,0.7H495c0.7,0,1.2-0.3,1.1-0.7
								C496,171.1,495.4,170.8,494.7,170.8z"/>
							<path class="st10" d="M495.6,175.3h-16.4c-0.7,0-1.2,0.3-1.1,0.7c0.1,0.4,0.7,0.7,1.4,0.7h16.4c0.7,0,1.2-0.3,1.1-0.7
								C496.8,175.7,496.2,175.3,495.6,175.3z"/>
							<path class="st10" d="M487,128.5h-23.5c-0.8,0-1.3,0.4-1.2,1c0.1,0.5,0.9,1,1.7,1h23.3c0.8,0,1.3-0.4,1.3-1
								C488.5,128.9,487.7,128.5,487,128.5z"/>
							<path class="st6" d="M485.8,122.3h-32.7c-0.8,0-1.3,0.5-1.2,1c0.2,0.6,0.9,1,1.7,1h32.5c0.8,0,1.4-0.4,1.3-1
								C487.4,122.7,486.6,122.3,485.8,122.3z"/>
							<path class="st6" d="M496.4,179.7h-27.1c-0.7,0-1.1,0.3-1,0.7c0.1,0.4,0.7,0.7,1.4,0.7h27c0.7,0,1.1-0.3,1.1-0.7
								C497.6,180.1,497,179.7,496.4,179.7z"/>
							<polygon class="st10" points="499.1,136.5 505.2,136.5 504.9,134.2 498.8,134.2 							"/>
							<polygon class="st10" points="500,142.2 506,142.2 505.7,140 499.6,140 							"/>
							<polygon class="st10" points="500.8,147.7 506.7,147.7 506.4,145.5 500.5,145.5 							"/>
							<polygon class="st10" points="501.6,153 507.4,153 507.1,150.9 501.3,150.9 							"/>
							<polygon class="st10" points="502.4,158.1 508.1,158.1 507.8,156.1 502.1,156.1 							"/>
							<polygon class="st10" points="503.1,163 508.7,163 508.4,161.1 502.8,161.1 							"/>
							<polygon class="st10" points="503.8,167.8 509.3,167.8 509.1,165.9 503.5,165.9 							"/>
							<polygon class="st10" points="504.5,172.5 509.9,172.5 509.7,170.6 504.2,170.6 							"/>
							<polygon class="st10" points="505.2,176.9 510.5,176.9 510.3,175.2 504.9,175.2 							"/>
							<polygon class="st10" points="498.2,130.6 504.5,130.6 504.1,128.2 497.9,128.2 							"/>
							<polygon class="st10" points="497.3,124.5 503.7,124.5 503.3,122 496.9,122 							"/>
							<polygon class="st10" points="505.8,181.3 511.1,181.3 510.9,179.6 505.6,179.6 							"/>
							<path class="st6" d="M538,171.5c0-0.4,0.5-0.7,1.2-0.7h90.5c0.7,0,1.2,0.3,1,0.7c-0.1,0.4-0.8,0.7-1.5,0.7h-90
								C538.6,172.3,538.1,171.9,538,171.5z"/>
							<path class="st6" d="M630.6,167.6h-50.1c-0.7,0-1.2-0.3-1.2-0.8c0-0.4,0.7-0.8,1.4-0.8h50.3c0.7,0,1.2,0.3,1,0.8
								C632,167.3,631.3,167.6,630.6,167.6z"/>
							<path class="st10" d="M568.7,167.6h-15.6c-0.7,0-1.3-0.3-1.3-0.8c0-0.4,0.6-0.8,1.3-0.8h15.7c0.7,0,1.2,0.3,1.2,0.8
								C569.9,167.3,569.4,167.6,568.7,167.6z"/>
							<path class="st6" d="M601.2,162.8h-70.7c-0.7,0-1.3-0.4-1.3-0.8c0-0.4,0.5-0.8,1.2-0.8h71c0.7,0,1.2,0.4,1.1,0.8
								C602.5,162.5,601.9,162.8,601.2,162.8z"/>
							<path class="st10" d="M515.7,161.3h5c0.7,0,1.3,0.4,1.4,0.8c0,0.4-0.5,0.8-1.2,0.8h-5c-0.7,0-1.3-0.4-1.4-0.8
								C514.5,161.6,515,161.3,515.7,161.3z"/>
							<path class="st6" d="M611.4,157.1c-0.1,0.4-0.8,0.8-1.5,0.8h-66.6c-0.7,0-1.3-0.4-1.3-0.8c0-0.4,0.6-0.8,1.3-0.8h66.9
								C611,156.3,611.5,156.6,611.4,157.1z"/>
							<path class="st6" d="M515.2,156.3h18.9c0.7,0,1.3,0.4,1.3,0.8c0,0.4-0.6,0.8-1.3,0.8h-18.8c-0.7,0-1.3-0.4-1.4-0.8
								C513.9,156.6,514.5,156.3,515.2,156.3z"/>
							<path class="st6" d="M514.7,151.1h72.6c0.7,0,1.3,0.4,1.2,0.8c-0.1,0.5-0.7,0.8-1.4,0.8h-72.2c-0.7,0-1.4-0.4-1.4-0.8
								C513.4,151.5,513.9,151.1,514.7,151.1z"/>
							<path class="st6" d="M561.8,147.5c-0.7,0-1.3-0.4-1.3-0.9c0-0.5,0.6-0.9,1.4-0.9h38.3c0.8,0,1.3,0.4,1.2,0.9
								c-0.1,0.5-0.8,0.9-1.5,0.9H561.8z"/>
							<path class="st6" d="M514.1,145.7h33.2c0.8,0,1.4,0.4,1.4,0.9c0,0.5-0.6,0.9-1.4,0.9h-33c-0.7,0-1.4-0.4-1.4-0.9
								C512.8,146.1,513.3,145.7,514.1,145.7z"/>
							<path class="st6" d="M638,142h-91.3c-0.8,0-1.4-0.4-1.4-0.9c0-0.5,0.6-0.9,1.4-0.9h91.8c0.8,0,1.3,0.4,1.1,0.9
								C639.5,141.6,638.8,142,638,142z"/>
							<path class="st6" d="M639.6,136.3h-80.3c-0.8,0-1.4-0.4-1.4-0.9c0-0.5,0.7-0.9,1.4-0.9h80.8c0.8,0,1.3,0.4,1.1,0.9
								C641.1,135.9,640.4,136.3,639.6,136.3z"/>
							<path class="st10" d="M641.3,130.4h-16.8c-0.8,0-1.3-0.4-1.2-1c0.1-0.5,0.9-1,1.7-1h16.9c0.8,0,1.3,0.4,1.2,1
								C642.9,130,642.1,130.4,641.3,130.4z"/>
							<path class="st6" d="M612.7,130.4H551c-0.8,0-1.4-0.4-1.4-1c0-0.5,0.6-1,1.4-1h62.1c0.8,0,1.3,0.4,1.2,1
								C614.2,130,613.5,130.4,612.7,130.4z"/>
							<path class="st6" d="M517.2,175.3h57c0.7,0,1.2,0.3,1.2,0.7c0,0.4-0.6,0.7-1.3,0.7h-56.8c-0.7,0-1.3-0.3-1.3-0.7
								C516.1,175.7,516.6,175.3,517.2,175.3z"/>
							<path class="st6" d="M517.7,179.7h87.6c0.7,0,1.1,0.3,1.1,0.7c-0.1,0.4-0.7,0.7-1.4,0.7h-87.2c-0.7,0-1.2-0.3-1.3-0.7
								C516.5,180.1,517,179.7,517.7,179.7z"/>
							<path class="st6" d="M609.7,124.3H565c-0.8,0-1.4-0.4-1.4-1c0-0.6,0.7-1,1.5-1H610c0.8,0,1.4,0.5,1.3,1
								C611.2,123.8,610.5,124.3,609.7,124.3z"/>
							<path class="st10" d="M552.4,124.3h-40.6c-0.8,0-1.5-0.4-1.6-1c-0.1-0.6,0.5-1,1.3-1h40.8c0.8,0,1.5,0.5,1.4,1
								C553.9,123.8,553.2,124.3,552.4,124.3z"/>
							<path class="st10" d="M586.9,175.3c0.7,0,1.2,0.3,1.1,0.7c-0.1,0.4-0.7,0.7-1.3,0.7h-4.4c-0.7,0-1.2-0.3-1.1-0.7
								c0-0.4,0.6-0.7,1.3-0.7H586.9z"/>
							<path class="st10" d="M532.8,171.5c0,0.4-0.5,0.7-1.2,0.7h-6c-0.7,0-1.3-0.3-1.3-0.7c0-0.4,0.5-0.7,1.2-0.7h6
								C532.2,170.8,532.8,171.1,532.8,171.5z"/>
							<path class="st10" d="M605.3,151.9c-0.1,0.5-0.8,0.8-1.5,0.8h-7c-0.7,0-1.3-0.4-1.2-0.8c0.1-0.5,0.7-0.8,1.5-0.8h7.1
								C604.9,151.1,605.4,151.5,605.3,151.9z"/>
							<path class="st10" d="M627.2,156.3c0.7,0,1.2,0.4,1.1,0.8c-0.1,0.4-0.8,0.8-1.5,0.8h-5.6c-0.7,0-1.2-0.4-1.1-0.8
								c0.1-0.4,0.8-0.8,1.5-0.8H627.2z"/>
							<path class="st10" d="M535.6,142c-0.8,0-1.4-0.4-1.4-0.9c0-0.5,0.6-0.9,1.3-0.9h6c0.8,0,1.4,0.4,1.4,0.9
								c0,0.5-0.6,0.9-1.4,0.9H535.6z"/>
						</g>
					</g>
					<g>
						<path class="st6" d="M454.5,112.9c0.5,1.5-0.4,2.8-2,2.8c-1.6,0-3.2-1.2-3.7-2.8c-0.5-1.6,0.4-2.9,2-2.9
							C452.4,110.1,454,111.3,454.5,112.9z"/>
						<path class="st6" d="M462.2,113c0.4,1.5-0.5,2.8-2.1,2.8s-3.2-1.2-3.6-2.8c-0.5-1.6,0.5-2.9,2.1-2.9S461.8,111.4,462.2,113z"
							/>
						<path class="st6" d="M470,112.9c0.4,1.5-0.6,2.8-2.2,2.8s-3.1-1.2-3.5-2.8c-0.4-1.6,0.6-2.9,2.2-2.9
							C468,110.1,469.6,111.3,470,112.9z"/>
					</g>
				</g>
				<g>
					<polygon class="st23" points="395.8,102.6 421.2,170.6 451.9,102.6 					"/>
					<polygon class="st23" points="438.7,189.9 489.6,102.6 542.9,102.6 468,189.9 					"/>
					<polygon class="st23" points="565.9,102.2 486.5,189.9 498.8,189.9 581,102.6 					"/>
					<polygon class="st23" points="581.6,189.9 668.8,102.6 681.1,102.6 591.2,189.9 					"/>
				</g>
			</g>
		</g>
		<g>
			<g>
				<g>
					<g>
						<path class="st19" d="M463.3,227.8h-19.9c-2.6,0-4.7,2.1-4.7,4.7v9.7c0,2.6,2.1,4.7,4.7,4.7h5.2l3.9,8.9l5.6-8.9h5.2
							c2.6,0,4.7-2.1,4.7-4.7v-9.7C468,229.9,465.9,227.8,463.3,227.8z"/>
					</g>
				</g>
				<g>
					<path class="st8" d="M450.6,233.4c0-0.5,0.4-0.9,1-0.9c0.6,0,1,0.4,1,0.9c0,0.5-0.4,0.9-1,0.9
						C451,234.3,450.6,233.9,450.6,233.4z M450.8,235.3h1.5v6.5h-1.5V235.3z"/>
					<path class="st8" d="M456,235v0.4h1.8v1.2H456v5.2h-1.5v-5.2h-1.1v-1.2h1.1V235c0-1.4,0.8-2.2,2.3-2.2c0.5,0,1,0.1,1.4,0.4
						l-0.4,1.1c-0.2-0.2-0.5-0.3-0.8-0.3C456.3,234,456,234.3,456,235z"/>
				</g>
			</g>
			<g>
				<g>
					<g>
						<path class="st19" d="M523.9,229.2H504c-2.6,0-4.7,2.1-4.7,4.7v9.7c0,2.6,2.1,4.7,4.7,4.7h5.2l3.9,8.9l5.6-8.9h5.2
							c2.6,0,4.7-2.1,4.7-4.7v-9.7C528.6,231.3,526.5,229.2,523.9,229.2z"/>
					</g>
				</g>
				<g>
					<path class="st8" d="M508.2,240.4h-5.1c0.2,0.9,1,1.6,2.1,1.6c0.7,0,1.3-0.2,1.8-0.7l0.8,0.9c-0.6,0.7-1.5,1.1-2.6,1.1
						c-2.2,0-3.6-1.4-3.6-3.3c0-1.9,1.4-3.3,3.3-3.3c1.9,0,3.3,1.3,3.3,3.3C508.2,240.1,508.2,240.3,508.2,240.4z M503.1,239.4h3.7
						c-0.1-0.9-0.8-1.6-1.8-1.6C504,237.8,503.3,238.5,503.1,239.4z"/>
					<path class="st8" d="M509.7,234.2h1.5v9h-1.5V234.2z"/>
					<path class="st8" d="M512.5,242.5l0.6-1.2c0.6,0.4,1.4,0.6,2.3,0.6c1,0,1.4-0.3,1.4-0.7c0-1.2-4-0.1-4-2.7c0-1.2,1.1-2,2.9-2
						c0.9,0,1.8,0.2,2.4,0.6l-0.6,1.2c-0.6-0.4-1.2-0.5-1.9-0.5c-0.9,0-1.4,0.3-1.4,0.7c0,1.3,4,0.1,4,2.7c0,1.2-1.1,2-2.9,2
						C514.1,243.3,513,243,512.5,242.5z"/>
					<path class="st8" d="M525.5,240.4h-5.1c0.2,0.9,1,1.6,2.1,1.6c0.7,0,1.3-0.2,1.8-0.7l0.8,0.9c-0.6,0.7-1.5,1.1-2.6,1.1
						c-2.2,0-3.6-1.4-3.6-3.3c0-1.9,1.4-3.3,3.3-3.3c1.9,0,3.3,1.3,3.3,3.3C525.5,240.1,525.5,240.3,525.5,240.4z M520.4,239.4h3.7
						c-0.1-0.9-0.8-1.6-1.8-1.6C521.3,237.8,520.6,238.5,520.4,239.4z"/>
				</g>
			</g>
			<g>
				<g>
					<g>
						<path class="st19" d="M582.7,228.6h-19.9c-2.6,0-4.7,2.1-4.7,4.7v9.7c0,2.6,2.1,4.7,4.7,4.7h5.2l3.9,8.9l5.6-8.9h5.2
							c2.6,0,4.7-2.1,4.7-4.7v-9.7C587.4,230.7,585.3,228.6,582.7,228.6z"/>
					</g>
				</g>
				<g>
					<path class="st8" d="M567.4,235.8v0.4h1.8v1.2h-1.7v5.2h-1.5v-5.2h-1.1v-1.2h1.1v-0.4c0-1.4,0.8-2.2,2.3-2.2
						c0.5,0,1,0.1,1.4,0.4l-0.4,1.1c-0.2-0.2-0.5-0.3-0.8-0.3C567.7,234.7,567.4,235.1,567.4,235.8z"/>
					<path class="st8" d="M569.5,239.4c0-1.9,1.5-3.3,3.4-3.3c2,0,3.5,1.4,3.5,3.3c0,1.9-1.4,3.3-3.5,3.3
						C571,242.7,569.5,241.3,569.5,239.4z M574.9,239.4c0-1.2-0.8-2-1.9-2c-1.1,0-1.9,0.8-1.9,2c0,1.2,0.8,2,1.9,2
						C574.1,241.4,574.9,240.6,574.9,239.4z"/>
					<path class="st8" d="M581.6,236.1v1.4c-0.1,0-0.2,0-0.4,0c-1.2,0-1.9,0.7-1.9,2v3.1h-1.5v-6.5h1.4v0.9
						C579.8,236.4,580.6,236.1,581.6,236.1z"/>
				</g>
			</g>
			<g>
				<g>
					<g>
						<path class="st19" d="M640.6,227.8h-19.9c-2.6,0-4.7,2.1-4.7,4.7v9.7c0,2.6,2.1,4.7,4.7,4.7h5.2l3.9,8.9l5.6-8.9h5.2
							c2.6,0,4.7-2.1,4.7-4.7v-9.7C645.3,229.9,643.2,227.8,640.6,227.8z"/>
					</g>
				</g>
				<g>
					<path class="st8" d="M628.1,235h5.6v1.2h-5.6V235z M628.1,238h5.6v1.2h-5.6V238z"/>
				</g>
			</g>
			<g>
				<g>
					<g>
						<path class="st19" d="M493.7,216.6h-19.9c-2.6,0-4.7,2.1-4.7,4.7v9.7c0,2.6,2.1,4.7,4.7,4.7h5.2l3.9,8.9l5.6-8.9h5.2
							c2.6,0,4.7-2.1,4.7-4.7v-9.7C498.4,218.7,496.3,216.6,493.7,216.6z"/>
					</g>
				</g>
				<g>
					<path class="st8" d="M479,220.6h2.9v1.2h-1.4v8.9h1.4v1.2H479V220.6z"/>
					<path class="st8" d="M485.7,232v-1.2h1.4v-8.9h-1.4v-1.2h2.9V232H485.7z"/>
				</g>
			</g>
			<g>
				<g>
					<g>
						<path class="st19" d="M552.9,215.6H533c-2.6,0-4.7,2.1-4.7,4.7v9.7c0,2.6,2.1,4.7,4.7,4.7h5.2l3.9,8.9l5.6-8.9h5.2
							c2.6,0,4.7-2.1,4.7-4.7v-9.7C557.6,217.7,555.5,215.6,552.9,215.6z"/>
					</g>
				</g>
				<g>
					<path class="st8" d="M538.9,225.3c0.5,0.2,0.7,0.5,0.7,1.2v2.3c0,0.6,0.3,0.9,0.9,0.9h0.3v1.2h-0.6c-1.4,0-2.1-0.7-2.1-2v-2.5
						c0-0.4-0.2-0.6-0.5-0.6h-0.4v-1.2h0.4c0.3,0,0.5-0.2,0.5-0.6v-2.5c0-1.3,0.7-2,2.1-2h0.6v1.2h-0.3c-0.6,0-0.9,0.3-0.9,0.9v2.3
						C539.6,224.8,539.4,225.1,538.9,225.3z"/>
					<path class="st8" d="M548.1,224.7v1.2h-0.4c-0.3,0-0.5,0.2-0.5,0.6v2.5c0,1.3-0.7,2-2.1,2h-0.6v-1.2h0.3c0.6,0,0.9-0.3,0.9-0.9
						v-2.3c0-0.8,0.2-1.1,0.7-1.2c-0.5-0.2-0.7-0.5-0.7-1.2v-2.3c0-0.6-0.3-0.9-0.9-0.9h-0.3v-1.2h0.6c1.4,0,2.1,0.7,2.1,2v2.5
						c0,0.4,0.2,0.6,0.5,0.6H548.1z"/>
				</g>
			</g>
			<g>
				<g>
					<g>
						<path class="st19" d="M611.5,213.7h-19.9c-2.6,0-4.7,2.1-4.7,4.7v9.7c0,2.6,2.1,4.7,4.7,4.7h5.2l3.9,8.9l5.6-8.9h5.2
							c2.6,0,4.7-2.1,4.7-4.7v-9.7C616.2,215.8,614.1,213.7,611.5,213.7z"/>
					</g>
				</g>
				<g>
					<path class="st8" d="M600.7,220.8c0-0.6,0.4-1,1-1c0.5,0,1,0.4,1,1c0,0.6-0.4,1-1,1C601.2,221.8,600.7,221.4,600.7,220.8z
						 M602.7,225.5c0,0.3-0.1,0.5-0.3,1l-0.6,1.7h-1l0.5-1.9c-0.3-0.1-0.6-0.5-0.6-0.9c0-0.6,0.4-1,1-1
						C602.3,224.4,602.7,224.9,602.7,225.5z"/>
				</g>
			</g>
			<g>
				<g>
					<g>
						<path class="st19" d="M533.6,383.1h19.9c2.6,0,4.7-2.1,4.7-4.7v-9.7c0-2.6-2.1-4.7-4.7-4.7h-5.2l-1.5-8.9l-8,8.9h-5.2
							c-2.6,0-4.7,2.1-4.7,4.7v9.7C528.9,381,531,383.1,533.6,383.1z"/>
					</g>
				</g>
				<g>
					<path class="st8" d="M540.6,371.5l-4.2,1.6l4.2,1.6v1.3l-5.6-2.2v-1.3l5.6-2.2V371.5z"/>
					<path class="st8" d="M545,367.1h1.4l-4,11.4H541L545,367.1z"/>
					<path class="st8" d="M552.3,372.5v1.3l-5.6,2.2v-1.3l4.2-1.6l-4.2-1.6v-1.3L552.3,372.5z"/>
				</g>
			</g>
			<g>
				<g>
					<g>
						<g>
							<path class="st19" d="M407,312.5h19.9c2.6,0,4.7-2.1,4.7-4.7v-9.7c0-2.6-2.1-4.7-4.7-4.7h-5.2l1.1-8.9l-10.6,8.9H407
								c-2.6,0-4.7,2.1-4.7,4.7v9.7C402.3,310.4,404.4,312.5,407,312.5z"/>
						</g>
					</g>
				</g>
				<g>
					<path class="st8" d="M412.9,306.4c0-0.5,0.4-0.9,1-0.9c0.6,0,1,0.4,1,0.9c0,0.5-0.4,0.9-1,0.9
						C413.3,307.3,412.9,306.9,412.9,306.4z M413,298.7h1.8l-0.3,5.7h-1.2L413,298.7z"/>
					<path class="st8" d="M416.3,300.9h5.6v1.2h-5.6V300.9z M416.3,303.8h5.6v1.2h-5.6V303.8z"/>
				</g>
			</g>
		</g>
		<g>
			<g>
				<g>
					<g>
						<defs>
							<path id="XMLID_5_" d="M725.9,301.5c0,3.9-0.3,7.7-0.9,11.2c-2.7,16.3-11.3,28.3-21.5,28.3c-0.9,0-1.8-0.1-2.7-0.3
								c-11.1-2.4-19.7-19-19.7-39.2c0-21.8,10-29.5,22.4-29.5C715.9,272,725.9,279.7,725.9,301.5z"/>
						</defs>
						<use xlink:href="#XMLID_5_"  style="overflow:visible;fill:#FFFFFF;"/>
						<clipPath id="XMLID_4_">
							<use xlink:href="#XMLID_5_"  style="overflow:visible;"/>
						</clipPath>
						<g class="st24">
							<path class="st5" d="M717.8,301.8c0.8,11.7-1.2,23.4-4.5,34.7c8.4-6.9,12.3-17.8,15.8-28.2c2.5-7.5,5.1-15.2,4.7-23.2
								c-0.5-7.9-4.7-16.1-12.1-18.9c-3.6-1.4-7.9-1.3-11.4,0.2c-6.2,2.5-2.8,4.5-0.2,9C714.6,283.4,717.1,292.6,717.8,301.8z"/>
							<path class="st10" d="M717.8,301.8c0.8,11.7-1.2,23.4-4.5,34.7c8.4-6.9,12.3-17.8,15.8-28.2c2.5-7.5,5.1-15.2,4.7-23.2
								c-0.5-7.9-4.7-16.1-12.1-18.9c-3.6-1.4-7.9-1.3-11.4,0.2c-6.2,2.5-2.8,4.5-0.2,9C714.6,283.4,717.1,292.6,717.8,301.8z"/>
						</g>
						<use xlink:href="#XMLID_5_"  style="overflow:visible;fill:none;stroke:#263238;stroke-miterlimit:10;"/>
					</g>
					<g>
						<path class="st3" d="M715.5,321.6c-1.5,5-4,9.8-7.3,13.8"/>
						<path class="st13" d="M716.2,318.8c-0.1,0.5-0.2,1.1-0.4,1.6"/>
						<path class="st3" d="M716.2,301.5c1.2,5,1.3,10.3,0.4,15.4"/>
					</g>
					<path class="st13" d="M681.1,301.5c0,0,25.5-10.1,44.8,0"/>
					<path class="st3" d="M703.5,272c0,0,2.5,9.4,2.8,24.8"/>
					<path class="st22" d="M707,283.5c0.3,2.9-0.2,5.4-1.1,5.6c-1,0.2-2-2.1-2.3-5c-0.3-2.9,0.2-5.4,1.1-5.6
						C705.7,278.3,706.7,280.6,707,283.5z"/>
				</g>
			</g>
			<path class="st13" d="M693.4,348.5h-29.9c-3.7,0-6.8-2.8-7.3-6.3c-0.1-0.3-0.1-0.7-0.1-1v-70.4c0-0.3,0-0.7,0.1-1
				c0.5-3.6,3.5-6.3,7.3-6.3h84.7c1.3,0,2.5,0.3,3.5,0.9"/>
		</g>
	</g>
</g>
</svg>
