<?xml version="1.0" encoding="utf-8"?>
<!-- Generator: Adobe Illustrator 25.0.0, SVG Export Plug-In . SVG Version: 6.00 Build 0)  -->
<svg version="1.1" xmlns="http://www.w3.org/2000/svg" xmlns:xlink="http://www.w3.org/1999/xlink" x="0px" y="0px"
	 viewBox="0 0 1080 414.3" style="enable-background:new 0 0 1080 414.3;" xml:space="preserve">
<style type="text/css">
	.st0{opacity:0.25;fill:#92E3A9;}
	.st1{opacity:0.2;fill:#263238;}
	.st2{opacity:0.2;}
	.st3{fill:#FFFFFF;stroke:#263238;stroke-miterlimit:10;}
	.st4{fill:#263238;stroke:#FFFFFF;stroke-miterlimit:10;}
	.st5{fill:#92E3A9;}
	.st6{fill:#FFFFFF;}
	.st7{fill:#92E3A9;stroke:#263238;stroke-linecap:round;stroke-linejoin:round;stroke-miterlimit:10;}
	.st8{fill:#263238;}
	.st9{clip-path:url(#XMLID_2_);}
	.st10{opacity:0.5;fill:#FFFFFF;}
	.st11{opacity:0.5;}
	.st12{fill:none;}
	.st13{fill:none;stroke:#263238;stroke-miterlimit:10;}
	.st14{clip-path:url(#XMLID_3_);fill:#92E3A9;}
	.st15{clip-path:url(#XMLID_3_);}
	.st16{opacity:0.5;clip-path:url(#XMLID_3_);fill:#FFFFFF;}
	.st17{opacity:0.5;clip-path:url(#XMLID_3_);}
	.st18{fill:none;stroke:#263238;stroke-linecap:round;stroke-linejoin:round;stroke-miterlimit:10;}
	.st19{fill:#FFFFFF;stroke:#263238;stroke-linecap:round;stroke-linejoin:round;stroke-miterlimit:10;}
	.st20{fill:#757575;stroke:#263238;stroke-linecap:round;stroke-linejoin:round;stroke-miterlimit:10;}
	.st21{fill:#999999;stroke:#263238;stroke-linecap:round;stroke-linejoin:round;stroke-miterlimit:10;}
	.st22{fill:#BFBFBF;stroke:#263238;stroke-linecap:round;stroke-linejoin:round;stroke-miterlimit:10;}
	.st23{opacity:0.1;fill:#FFFFFF;}
	.st24{clip-path:url(#XMLID_4_);}
</style>
<g id="Background_Simple">
</g>
<g id="Plants">
</g>
<g id="Keyboard">
</g>
<g id="Hands">
</g>
<g id="Coffee">
</g>
<g id="Monitor">
</g>
<g id="Code_1_">
</g>
<g id="Mouse">
	<rect class="st0" width="1080" height="414.3"/>
	<g>
		<path class="st1" d="M484.5,261.1C484.3,261,484.3,260.9,484.5,261.1L484.5,261.1z"/>
		<g>
			<path class="st2" d="M412.5,246.7c-1,6.8-6,12.3-12.6,14.5l-2.5,0.8c-8.9,12.6-24.6,18-37.9,10.2l-3.9-2.3l-10.9-13
				c0,0-0.1,0-0.1,0c-3.5,0.7-7.4,0.2-9.9-2.2c-0.4,2.1-3.2,3.4-5.1,2.3c-1.9-1.1-2.1-4.2-0.4-5.5c-2.2,1.9-5.6,1.1-7.7-1.1
				c-0.1-5.8,0.5-11.6,2-17.3c0.9-3.6,2-7,3.4-10.2c1.1-2.5,2.3-5,3.6-7.3c0.1-0.2,0.2-0.4,0.3-0.6c2-3.5,4.2-6.8,6.7-10
				c0.4-0.4,0.8-0.8,1.3-1.1c1-0.9,1.9-1.7,2.9-2.6c0.1-0.1,0.1-0.1,0.2-0.2c1.6-1.4,3.1-2.7,4.7-4c2.4-2,4.9-4.1,7.4-6.1
				c0.1-0.1,0.2-0.1,0.2-0.2c2.1-1.7,4.3-3.4,6.5-5.1c1.1-0.8,2.2-1.7,3.3-2.5c0.7,0.1,1.3,0.2,1.9,0.4c2.7,0.9,3.1,3.4,5,5.1
				c2.5,2.2,4.8-1.5,8.6-1.4c11.6,0.4,7.1,12.3,12.8,10.8c24.6-6.5,20.4,24.9,9.8,31.8C408.3,235.1,413.8,238.6,412.5,246.7z"/>
			<g>
				<ellipse class="st3" cx="359.7" cy="235.7" rx="41.4" ry="40.9"/>
				<ellipse class="st4" cx="359.7" cy="234" rx="37.8" ry="37.3"/>
			</g>
			<g>
				<g>
					<g>
						<g>
							<g>
								<g>
									<path class="st5" d="M319.1,248.7c-2.4,1.5-3.1,6.5-1.2,8.6c1.9,2.1,5.5,0.5,6.2-2.9c0.3,0.9,1.5,1.1,2,0.3
										c0.4-0.6,0.4-1.5,0.1-2.1c-0.2-0.2-0.1-0.3,0,0c1.2,1,3.3-0.1,3.6-2.2c-0.9,5.5,4.1,10.3,7.8,7.5c-1.1,2.3,0.3,5.4,2.2,6
										c1.9,0.6,3.9-0.5,5.8-1.8c1.8-1.2,3.7-2.7,5.7-2.8c1.7-0.1,3.3,0.9,5,1.5c5.3,1.8,11.4-0.6,15.4-6.1
										c2.7,4.5,9.2,2.9,11-2.8c0.4,2.7,2.2,4.7,4.2,4.7c2,0,4.1-1.9,4.8-4.6l0,0c0,2.5,2.3,3.7,3.9,2.1c2-2.1,3.3-5.8,2.3-8.9
										c2.7-0.1,5.4-3.3,5.8-6.9c0.4-3.7-1.4-7.3-4.1-8.1c4.5-1.9,8-8,8.2-14.3c0.2-6.3-3.1-12.1-7.5-13.6
										c-1.7-0.6-3.7-0.4-5.1,1.1c-0.5-3.6-2.1-6.8-4.5-8.4c-3.8-2.6-9.1-0.8-11.9,4c1.4-2.5,1.5-6,0.2-8.4
										c-1.3-2.3-3.8-3.3-5.9-2.2c-0.5-3.8-3.4-6.6-6.3-5.8c-2.9,0.7-5.2,4.8-5,8.7c-0.3-3.1-4-3.9-5.3-1.3c0.1,0.2-0.1,0.1,0,0
										c-1.8-3.9-5.6-5.8-9-4.7c-3.7,1.2-6.8,5.8-7.3,10.9c-2.5-2.3-6.3-2.2-9,0.2c-2.7,2.5-4.3,7.1-3.8,11.3
										c-2.9-2.8-7.7-1.3-9.7,3.1c-2,4.4-0.6,10.6,2.7,12.4c-2.3,0.3-4.3,3.4-4.3,6.5c0,3.1,2,5.7,4.3,5.6
										c-2.3,0.2-4.5,2.9-4.8,6.1C315.3,244.9,316.9,248.1,319.1,248.7z"/>
								</g>
							</g>
							<g class="st2">
								<g>
									<path class="st6" d="M357.2,234.4c-1.2-1-2.6-1.4-4-1c-1.4,0.4-2.7,1.9-3,3.7c-0.3,1.8,0.5,3.8,1.9,4.1
										c1.7,0.4,3.4-1.5,5.1-1.3c0.6,0.1,1.2,0.4,1.8,0.6c2.5,0.7,5-1.5,7.1-3.6c0.7-0.7,1.5-1.5,2-2.5c0.5-1,0.7-2.3,0.3-3.3
										c-0.6-1.3-2.1-1.5-3.4-1.2c-2.5,0.5-5,2-7,4.1c0.1-0.5,0.1-1,0.2-1.5L357.2,234.4z"/>
								</g>
								<g>
									<path class="st6" d="M393.3,229.5c-0.7-0.6-1.3-1.1-2.1-1.3c-0.8-0.2-1.7,0.1-2.3,0.9c-0.7,1.2-0.3,2.9,0.6,3.8
										c0.9,0.8,2,1,3.1,1.2c1.1,0.2,2.6,0.1,3.2-1.2c0.4-1,0.1-2.2-0.5-2.9c-0.6-0.7-1.4-1-2.2-1.3L393.3,229.5z"/>
								</g>
								<g>
									<path class="st6" d="M336.8,209c-2.3,1.4-4.1,4.2-4.7,7.3c-0.2,0.9-0.2,2.1,0.5,2.6c0.4,0.3,1,0.1,1.6,0
										c2.2-0.8,4.4-1.6,6.6-2.4c-1.1,0.6-2.2,1.2-3,2.2c-0.9,1-1.5,2.5-1.2,3.9c0.3,1.6,1.7,2.5,3,2.4c1.3-0.1,2.6-1,3.7-2.1
										c1.2-1.1,2.3-2.6,2.4-4.5c0.1-1.8-1.7-3.4-2.8-2.1c2.5-1,5-2.6,7.2-4.5c0.8-0.7,1.6-1.5,2.1-2.6c0.5-1.1,0.7-2.4,0.3-3.4
										c-2.2-5.1-5.2,2.8-6.6,3.5C343.1,210.8,340.2,207.1,336.8,209z"/>
									<path class="st6" d="M326.1,232c-0.3,1-0.1,2.3,0.5,2.9c0.6,0.6,1.8,0.3,2.1-0.7c-1.5,0.7-3.1,1.4-4,3.1
										c-0.9,1.6-0.8,4.4,0.7,4.9c0.9,0.3,1.9-0.3,2.8-0.9c2.4-1.8,4.7-3.9,6.9-6.1c-0.7,2,0.8,4.1,2.5,4.1
										c1.6,0.1,3.2-1.1,4.6-2.3c1.8-1.4,3.8-3.6,3.4-6.1c-0.4-2.2-2.5-3-4.2-2.3c-1.7,0.7-3,2.6-4.2,4.3c1-1.8-0.3-4.3-1.9-4.4
										c-1.6-0.2-3.2,1.1-4.2,2.7c1.9-1.4,2.3-4.8-0.1-5C329.3,225.9,326.5,230.3,326.1,232z"/>
									<path class="st6" d="M376.6,221.4c-1.4-0.6-3.1,0.7-3.5,2.5c-0.4,1.8,0.6,3.9,2.1,4.1c-1.1,0.2-2.1,0.9-2.8,2
										c-0.4,0.6-0.7,1.4-0.6,2.1c0.1,1.1,1,1.8,1.9,1.8c0.9,0,1.8-0.6,2.6-1.1c-0.9,0.2-1.8,0.3-2.5,1.1c-0.7,0.7-1,2.2-0.4,3
										c0.5,0.6,1.4,0.5,2.1,0.2c1.6-0.7,3.1-1.8,4.4-3.4c0.9,1.2,2.2,2.1,3.6,1.7c1.4-0.4,2.5-2.3,2.1-3.9
										c-0.3-1.2-1.2-1.8-2.2-1.9c-1-0.1-1.9,0.3-2.9,0.7c1-0.9,2-1.9,2.4-3.4c0.4-1.4-0.3-3.3-1.5-3.1c-1.3,0.2-2,2.5-3.1,3.4
										C377,225.9,379.4,222.5,376.6,221.4z"/>
									<g>
										<path class="st6" d="M353.2,215.9c-1.5,1.4-2.1,3.9-2,6.2c0.1,2.5,0.9,5.2,2.7,6.1c2.4,1.2,5.4-1.5,5.9-4.8
											c0.5-3.3-1.1-6.5-3.4-7.9C356.4,215.4,354.7,214.5,353.2,215.9z"/>
									</g>
									<g>
										<path class="st6" d="M370,212.2c0.2,0.2,0.4,0.4,0.6,0.6c-1-1.6-3.1-1.7-4.3-0.2c-1.2,1.5-1.3,4.2-0.1,5.6
											c1.2,1.3,3.3,1,4.4-0.7c1.7,0.9,4,0.4,5.2-1.6c1.2-1.9,1-5.2-0.6-6.3c-1.6-1.1-4.2,0.9-4,3.3c-0.2-0.3-0.5-0.6-0.7-1
											L370,212.2z"/>
									</g>
									<g>
										<path class="st6" d="M388.3,214.8c-1.2,1.6-2.5,3.2-2.9,5.3c-0.5,2.1,0.2,4.6,1.8,5c1.6,0.4,3.1-1.4,4.1-3.2
											c0.8-1.6,1.5-3.6,1.1-5.4c-0.4-1.8-2.4-2.7-3.5-1.3L388.3,214.8z"/>
									</g>
									<path class="st6" d="M362,204.1c-0.6-1.7-2.5-2.2-3.7-1.1c-1.3,1.1-1.8,3.3-1.3,5c0.5,1.7,1.9,2.8,3.3,2.9
										c1.8,0.1,4-1.9,3.6-4.1c0.8,1.3,2.1,1.7,3.4,1.5c1.3-0.2,2.5-1.1,3.6-1.9c1.5-1.2,3.2-3,3.1-5.2c-0.1-1.8-1.4-3-2.8-3.1
										c-1.4-0.1-2.8,0.8-3.9,2c-0.9,1-1.6,2.1-2.5,3c-0.9,0.9-2.2,1.4-3.1,0.7L362,204.1z"/>
								</g>
							</g>
						</g>
					</g>
				</g>
			</g>
		</g>
		<g>
			<g>
				<rect x="432.6" y="266.1" class="st7" width="230.7" height="97.1"/>
				<g>
					<rect x="437.4" y="271.9" class="st3" width="21.7" height="12"/>
					<rect x="623.7" y="330.5" class="st3" width="34.2" height="12"/>
					<rect x="636.8" y="286.9" class="st3" width="21.1" height="12"/>
					<rect x="437.4" y="315.7" class="st3" width="21.7" height="12"/>
					<rect x="437.4" y="301.2" class="st3" width="17.6" height="12"/>
					<g>
						<rect x="437.4" y="286.6" class="st3" width="12" height="12"/>
						<rect x="452.7" y="286.6" class="st3" width="12" height="12"/>
						<rect x="468" y="286.6" class="st3" width="12" height="12"/>
						<rect x="483.4" y="286.6" class="st3" width="12" height="12"/>
						<rect x="498.7" y="286.6" class="st3" width="12" height="12"/>
						<rect x="514" y="286.6" class="st3" width="12" height="12"/>
						<rect x="529.4" y="286.6" class="st3" width="12" height="12"/>
						<rect x="544.7" y="286.6" class="st3" width="12" height="12"/>
						<rect x="560" y="286.6" class="st3" width="12" height="12"/>
						<rect x="575.4" y="286.6" class="st3" width="12" height="12"/>
						<rect x="590.7" y="286.6" class="st3" width="12" height="12"/>
						<rect x="606" y="286.6" class="st3" width="12" height="12"/>
						<rect x="621.4" y="286.6" class="st3" width="12" height="12"/>
					</g>
					<g>
						<rect x="437.4" y="345.3" class="st3" width="12" height="12"/>
						<rect x="452.7" y="345.3" class="st3" width="12" height="12"/>
						<rect x="468" y="345.3" class="st3" width="12" height="12"/>
						<rect x="483.4" y="345.3" class="st3" width="14.7" height="12"/>
						<rect x="501.4" y="345.3" class="st3" width="73.3" height="12"/>
						<rect x="599.4" y="345.3" class="st3" width="12" height="12"/>
						<rect x="614.7" y="345.3" class="st3" width="12" height="12"/>
						<rect x="630.1" y="345.3" class="st3" width="12" height="12"/>
						<rect x="577.7" y="345.3" class="st3" width="18.7" height="12"/>
						<rect x="645.9" y="345.3" class="st3" width="12" height="12"/>
					</g>
					<g>
						<rect x="458.4" y="301.2" class="st3" width="12" height="12"/>
						<rect x="473.7" y="301.2" class="st3" width="12" height="12"/>
						<rect x="489" y="301.2" class="st3" width="12" height="12"/>
						<rect x="504.4" y="301.2" class="st3" width="12" height="12"/>
						<rect x="519.7" y="301.2" class="st3" width="12" height="12"/>
						<rect x="535" y="301.2" class="st3" width="12" height="12"/>
						<rect x="550.4" y="301.2" class="st3" width="12" height="12"/>
						<rect x="565.7" y="301.2" class="st3" width="12" height="12"/>
						<rect x="581" y="301.2" class="st3" width="12" height="12"/>
						<rect x="596.4" y="301.2" class="st3" width="12" height="12"/>
						<rect x="611.7" y="301.2" class="st3" width="12" height="12"/>
						<rect x="627" y="301.2" class="st3" width="12" height="12"/>
						<polygon class="st3" points="657.9,301.2 657.9,327.9 645.9,327.9 645.9,313.2 642.4,313.2 642.4,301.2 						"/>
					</g>
					<g>
						<rect x="461.9" y="315.9" class="st3" width="12" height="12"/>
						<rect x="477.2" y="315.9" class="st3" width="12" height="12"/>
						<rect x="492.5" y="315.9" class="st3" width="12" height="12"/>
						<rect x="507.9" y="315.9" class="st3" width="12" height="12"/>
						<rect x="523.2" y="315.9" class="st3" width="12" height="12"/>
						<rect x="538.5" y="315.9" class="st3" width="12" height="12"/>
						<rect x="553.9" y="315.9" class="st3" width="12" height="12"/>
						<rect x="569.2" y="315.9" class="st3" width="12" height="12"/>
						<rect x="584.5" y="315.9" class="st3" width="12" height="12"/>
						<rect x="599.9" y="315.9" class="st3" width="12" height="12"/>
						<rect x="615.2" y="315.9" class="st3" width="12" height="12"/>
						<rect x="630.5" y="315.9" class="st3" width="12" height="12"/>
					</g>
					<g>
						<rect x="455.4" y="330.5" class="st3" width="12" height="12"/>
						<rect x="470.7" y="330.5" class="st3" width="12" height="12"/>
						<rect x="486" y="330.5" class="st3" width="12" height="12"/>
						<rect x="501.4" y="330.5" class="st3" width="12" height="12"/>
						<rect x="516.7" y="330.5" class="st3" width="12" height="12"/>
						<rect x="532" y="330.5" class="st3" width="12" height="12"/>
						<rect x="547.4" y="330.5" class="st3" width="12" height="12"/>
						<rect x="562.7" y="330.5" class="st3" width="12" height="12"/>
						<rect x="578" y="330.5" class="st3" width="12" height="12"/>
						<rect x="593.4" y="330.5" class="st3" width="12" height="12"/>
						<rect x="608.7" y="330.5" class="st3" width="12" height="12"/>
					</g>
					<g>
						<rect x="461.9" y="272.7" class="st3" width="12" height="12"/>
						<rect x="477.2" y="272.7" class="st3" width="12" height="12"/>
						<rect x="492.5" y="272.7" class="st3" width="12" height="12"/>
						<rect x="507.9" y="272.7" class="st3" width="12" height="12"/>
						<rect x="523.2" y="272.7" class="st3" width="12" height="12"/>
						<rect x="538.5" y="272.7" class="st3" width="12" height="12"/>
						<rect x="553.9" y="272.7" class="st3" width="12" height="12"/>
						<rect x="569.2" y="272.7" class="st3" width="12" height="12"/>
						<rect x="584.5" y="272.7" class="st3" width="12" height="12"/>
						<rect x="599.9" y="272.7" class="st3" width="12" height="12"/>
						<rect x="615.2" y="272.7" class="st3" width="12" height="12"/>
						<rect x="630.5" y="272.7" class="st3" width="12" height="12"/>
						<rect x="645.9" y="272.7" class="st3" width="12" height="12"/>
					</g>
					<rect x="437.4" y="330.5" class="st3" width="14.6" height="12"/>
				</g>
			</g>
			<polygon class="st8" points="432.6,266.7 437.4,265.1 660.1,265.1 663.3,266.7 			"/>
		</g>
		<g>
			<path class="st2" d="M597.2,433.3l-4.7-28.2c-1-4.2-3.2-8-6.4-11.1c-9.3-9-21.7-18.2-22.2-30c-0.8-18-3.6-17.5-3.3-21.9
				c0-0.2,1.4-2.1,3.2-6.6c0.6-1.4,1-3.6,1.4-5.3c0.4-1.9,2.2-3.1,4-2.9c1.3,0.2,2.5,0.7,3.4,1.6c1.7,1.7,2.5,4.1,2.5,6.5
				c0.1,2.4-0.5,4.7-1,7.1c1.7,3.8,2.5,8.3,3,12.4c1.1-3.3,1.9-6.6,2.9-9.9c0.2-0.1,0.1-0.4,0.4-0.5c-1.5-3.2-0.2-3.1-3.2-10.2
				c-5-12-10.6-23.6-14.6-38.7c-0.3-1.2-0.3-3.1,0.1-4.2c1.5-4.3,5.9-3.3,7.8-0.8c0.5,0.7,0.9,1.4,1.2,2.2c2,5.4,6.4,13.6,9.6,18.5
				l10.9,16.6c0,0,3.8-3.1,4.4-4.5l0,0c0.6-1.4,0.9-12.7,0.9-12.7s-0.9,2.1-2.8,2c-1.4-0.1-4.2,0.7-6.2-1.5
				c-1.6-1.8-1.6-4.6-0.2-6.5l4.9-6.7c0,0,3.3-2.9,7.7-0.9c4.4,2,8.7,6.1,8.7,6.1s4.1-0.2,7.6,1.5c3.5,1.7,7.2,6.5,7.2,6.5
				s4.1,0.2,5.9,1.6c0.5,0.3,6.7,10,4.4,17.5c-1.3,4.5-2.2,11-2.8,12.8l-3.1,44.1l6.2,29l-13.1,7.3c-4.8,2.7-9.9,5-15.1,6.8
				L597.2,433.3z"/>
			<g>
				<g>
					<g>
						<g>
							<g>
								<defs>
									<path id="XMLID_8_" d="M634.5,381.8l0.1-44.2c0.5-1.8,0.9-8.3,1.9-12.9c1.7-7.7-5.1-16.9-5.6-17.2c-1.9-1.2-6-1.2-6-1.2
										s-4-4.6-7.6-6c-3.6-1.4-7.7-1-7.7-1s-4.5-3.8-9.1-5.5c-4.5-1.7-7.7,1.4-7.7,1.4l-4.5,7c-1.3,2.1-1.1,4.8,0.6,6.5
										c2.1,2.1,4.9,1.1,6.3,1.1c1.9,0,2.6-2.2,2.6-2.2s0.5,11.3,0,12.7l0,0c-0.5,1.4-4.1,4.8-4.1,4.8l-12-15.8
										c-3.5-4.6-8.4-12.6-10.8-17.8c-0.4-0.8-0.8-1.5-1.3-2.1c-2.1-2.4-6.6-3.1-7.8,1.3c-0.3,1.2-0.2,3.1,0.2,4.2
										c5,14.8,11.4,25.9,17.2,37.6c3.5,6.9,2.2,6.8,3.9,10c-0.2,0.1-0.1,0.4-0.3,0.5c-0.8,3.4-1.4,6.7-2.3,10.1
										c-0.8-4-1.9-8.5-3.8-12.2c0.4-2.4,0.8-4.7,0.5-7.1c-0.2-2.4-1.1-4.8-3-6.3c-0.9-0.8-2.2-1.3-3.5-1.4
										c-1.9-0.1-3.6,1.2-3.8,3.1c-0.3,1.8-0.5,3.9-1,5.4c-1.5,4.6-2.8,6.6-2.8,6.8c0,4.5,2.8,3.7,4.8,21.7
										c1.6,14,19.6,23.2,29.4,33.3l10.4,32.9c12.1-4.9,23.7-11.1,34.9-18.3L634.5,381.8z"/>
								</defs>
								<use xlink:href="#XMLID_8_"  style="overflow:visible;fill:#FFFFFF;"/>
								<clipPath id="XMLID_2_">
									<use xlink:href="#XMLID_8_"  style="overflow:visible;"/>
								</clipPath>
								<g class="st9">
									<g>
										<path class="st5" d="M629.4,321.7c0.5-1.3,1.2-2.6,2.3-3.5c1.1-0.8,2.9-0.9,3.8,0.1c-0.7-2.3-1.5-4.6-2.4-6.8
											c-0.6-1.7-1.4-3.5-2.8-4.7c-1.4-1.2-3.8-1.4-5,0c0.9,5.2,1,10.6,0.3,15.8c-0.4,2.8-0.8,6.1,1.1,8.2
											c0.5,0.4,1.4-0.3,1.1-0.9c-0.2-0.3-0.7-0.3-1-0.3C627.5,327,628.4,324.3,629.4,321.7z"/>
										<path class="st5" d="M629.4,321.7c0.5-1.3,1.2-2.6,2.3-3.5c1.1-0.8,2.9-0.9,3.8,0.1c-0.7-2.3-1.5-4.6-2.4-6.8
											c-0.6-1.7-1.4-3.5-2.8-4.7c-1.4-1.2-3.8-1.4-5,0c0.9,5.2,1,10.6,0.3,15.8c-0.4,2.8-0.8,6.1,1.1,8.2
											c0.5,0.4,1.4-0.3,1.1-0.9c-0.2-0.3-0.7-0.3-1-0.3C627.5,327,628.4,324.3,629.4,321.7z"/>
										<path class="st10" d="M629.4,321.7c0.5-1.3,1.2-2.6,2.3-3.5c1.1-0.8,2.9-0.9,3.8,0.1c-0.7-2.3-1.5-4.6-2.4-6.8
											c-0.6-1.7-1.4-3.5-2.8-4.7c-1.4-1.2-3.8-1.4-5,0c0.9,5.2,1,10.6,0.3,15.8c-0.4,2.8-0.8,6.1,1.1,8.2
											c0.5,0.4,1.4-0.3,1.1-0.9c-0.2-0.3-0.7-0.3-1-0.3C627.5,327,628.4,324.3,629.4,321.7z"/>
									</g>
									<g>
										<path class="st5" d="M613.5,317c0.1,1.9,0.1,3.9,0.5,5.7c0.5,1.9,1.5,3.7,3.2,4.6c-1-3.7-0.5-7.7,0.1-11.5
											c0.3-2.3,0.7-4.6,1-7c0.1-0.8,0.2-1.6,0.7-2.3s1.4-1.1,2.1-0.8c-1,0.6-2.3-0.2-2.9-1.2c-0.6-1-0.8-2.2-1.5-3.1
											c-1.3-1.7-4.2-2.1-6.2-1.6C611.1,305.6,613.2,311.1,613.5,317z"/>
										<g>
											<path class="st5" d="M613.5,317c0.1,1.9,0.1,3.9,0.5,5.7c0.5,1.9,1.5,3.7,3.2,4.6c-1-3.7-0.5-7.7,0.1-11.5
												c0.3-2.3,0.7-4.6,1-7c0.1-0.8,0.2-1.6,0.7-2.3s1.4-1.1,2.1-0.8c-1,0.6-2.3-0.2-2.9-1.2c-0.6-1-0.8-2.2-1.5-3.1
												c-1.3-1.7-4.2-2.1-6.2-1.6C611.1,305.6,613.2,311.1,613.5,317z"/>
										</g>
										<g class="st11">
											<path class="st6" d="M613.5,317c0.1,1.9,0.1,3.9,0.5,5.7c0.5,1.9,1.5,3.7,3.2,4.6c-1-3.7-0.5-7.7,0.1-11.5
												c0.3-2.3,0.7-4.6,1-7c0.1-0.8,0.2-1.6,0.7-2.3s1.4-1.1,2.1-0.8c-1,0.6-2.3-0.2-2.9-1.2c-0.6-1-0.8-2.2-1.5-3.1
												c-1.3-1.7-4.2-2.1-6.2-1.6C611.1,305.6,613.2,311.1,613.5,317z"/>
										</g>
									</g>
									<g>
										<g>
											<path class="st5" d="M597.1,301.6c-0.6-0.5-0.9-1.3-1.1-2.1c-0.2-0.8-0.5-1.6-1.2-2c-3.1,1.9-1.4,7.7-4.5,9.6
												c-0.6,0.4-1.4,0.6-1.7,1.2c-0.3,0.6-0.1,1.3,0.3,1.8c0.4,0.5,1.1,0.7,1.7,0.8c2.5,0.4,5.1-0.8,6.5-2.8
												c1.2-1.7,2.1-4.4,1.5-6.4C598.3,301.8,597.6,301.9,597.1,301.6z"/>
											<path class="st5" d="M565.2,338.9c-0.1,0.2-0.1,0.5,0.1,0.6c0.3,0.2,0.6-0.1,0.8-0.4c1.3-1.8,3.8-2.7,6-1.9
												c0.8,0,1.1-1.2,0.6-1.9s-1.4-0.7-2.2-0.7c-0.8,0-1.7,0-2.4-0.4c-0.8-0.5-1.2-1.6-1-2.5
												C566.5,334.1,565.8,336.5,565.2,338.9z"/>
										</g>
										<g class="st11">
											<path class="st6" d="M597.1,301.6c-0.6-0.5-0.9-1.3-1.1-2.1c-0.2-0.8-0.5-1.6-1.2-2c-3.1,1.9-1.4,7.7-4.5,9.6
												c-0.6,0.4-1.4,0.6-1.7,1.2c-0.3,0.6-0.1,1.3,0.3,1.8c0.4,0.5,1.1,0.7,1.7,0.8c2.5,0.4,5.1-0.8,6.5-2.8
												c1.2-1.7,2.1-4.4,1.5-6.4C598.3,301.8,597.6,301.9,597.1,301.6z"/>
											<path class="st6" d="M565.2,338.9c-0.1,0.2-0.1,0.5,0.1,0.6c0.3,0.2,0.6-0.1,0.8-0.4c1.3-1.8,3.8-2.7,6-1.9
												c0.8,0,1.1-1.2,0.6-1.9s-1.4-0.7-2.2-0.7c-0.8,0-1.7,0-2.4-0.4c-0.8-0.5-1.2-1.6-1-2.5
												C566.5,334.1,565.8,336.5,565.2,338.9z"/>
										</g>
									</g>
									<g>
										<path class="st5" d="M605.9,300.8c-1.7-0.2-3.6-0.3-5.1-1.2c-1.9-1.1-3.2-3.5-5.4-3.6c-2-0.1-3.4,1.7-4.5,3.3
											c-0.1-2.4,1.7-4.7,3.9-5.6c2.3-0.9,4.9-0.6,7.2,0.3c2.3,0.9,4.3,2.4,6.2,3.9c0.8,0.6,1.6,1.2,2.1,2
											C612.7,303.8,607.5,301,605.9,300.8z"/>
										<path class="st10" d="M605.9,300.8c-1.7-0.2-3.6-0.3-5.1-1.2c-1.9-1.1-3.2-3.5-5.4-3.6c-2-0.1-3.4,1.7-4.5,3.3
											c-0.1-2.4,1.7-4.7,3.9-5.6c2.3-0.9,4.9-0.6,7.2,0.3c2.3,0.9,4.3,2.4,6.2,3.9c0.8,0.6,1.6,1.2,2.1,2
											C612.7,303.8,607.5,301,605.9,300.8z"/>
									</g>
								</g>
								<g class="st9">
									<path class="st5" d="M574.7,357.6c0.1-0.2,0.2-0.4,0.3-0.7C574.8,357.1,574.6,357.3,574.7,357.6z"/>
									<path class="st5" d="M577.6,342.1c-0.2-2.5,0.2-4.9,0.1-7.4c-0.1-2.5-0.7-5.1-2.5-6.8c-2.6-2.4-9.6-1.2-7.3,3.4
										c0.7,1.3,2.4,1.9,3.7,1.4s2-2.4,1.2-3.6c2.9,4.3,2.6,10.5-0.6,14.6c3.7,3.2,4.8,8.9,2.8,13.3c0.4-0.3,1.2-0.4,1.6,0
										c0.7,0.5,0.9,1.5,1.3,2.3c0.3,0.8,1,1.6,1.9,1.6c1.2-2.9,0.8-6.3,0-9.4C579,348.3,577.9,345.3,577.6,342.1z"/>
									<path class="st5" d="M603.5,295.7c-1.4-1.1-3-1.8-4.7-2L603.5,295.7z"/>
									<path class="st5" d="M615.3,327c-0.4-1.7-1.2-3.3-1.6-5c-1.1-3.9-0.4-8.1-0.9-12.1c-0.6-5.2-3.4-10.1-7.4-13.5l-1.8-0.8
										c1.7,1.3,3,3.2,3.6,5.2c1.4,4.8,1.8,9.8,2.4,14.7c0.9,7.6,2.3,15.2,4.2,22.6C614.9,334.6,616.1,330.8,615.3,327z"/>
									<path class="st5" d="M596.2,309.2c1.2-1,1.9-2.5,2.1-4.1c0.2-1.4,0.1-2.8-0.1-4.2c-0.1,0.6-0.9,1.1-1.6,0.9
										c-0.9-0.2-1.4-1-1.9-1.7c-0.1,0.4-0.2,0.8-0.4,1.3c0-0.2-0.1-0.5-0.1-0.7l-0.5,0.6c0.7,2,1.4,4.3,0.3,6.2
										c-0.5,0.9-1.4,1.5-2.3,2.1C593.1,310.5,595,310.2,596.2,309.2z"/>
									<path class="st5" d="M598.2,300.4c0,0.2,0,0.3,0.1,0.5C598.2,300.7,598.2,300.6,598.2,300.4z"/>
									<path class="st5" d="M592.9,320.6c-3.5-6.9-7-13.8-10.9-20.5c-2.3-3.9-4.6-7.8-7.6-11.2c-1.3-1.5-5.2-5-7.3-2.7
										c-1.4,1.5,0.4,4.3-1.3,5.9c0.4,0,2.4-0.2,2.6,0.1c4.4,5.4,6.8,12.4,6.7,19.4c1.4-1.1,3.3,0.4,4.4,1.8
										c6.8,8.7,13.1,17.8,19,27.1c-1.1-4.1-1.2-8.5-2.4-12.6C595.4,325.5,594.2,323,592.9,320.6z"/>
									<path class="st5" d="M633.7,337.4c1.7-4.5,3-9.1,3.1-13.8c0.1-4.3-0.9-8.8-3.1-12.5c-0.6-0.9-3-4.8-4.3-4.5
										c-2.3,0.6,0.7,4.6,1.3,5.7c2,3.8,4.1,7.9,4,12.3c-0.1,3.4-1.5,6.5-2.6,9.7c-0.8,2.2-1.4,4.6-1.4,6.9
										c-0.2,0.3-0.3,0.5-0.5,0.8c-1.6,2-3.7,3.7-6.3,4.1c1-3,1.9-6,2.9-9c0.3-1.1,0.5-2.5-0.1-3.3c0.2-0.4,0.3-0.8,0.3-1.3
										c0-0.8-0.5-1.6-0.8-2.3c-1.3-2.9-0.9-6.2-0.6-9.4c0.4-3.9,0.6-7.9-0.6-11.7c-1.1-3.7-3.8-7.2-7.5-8.5c0.3,0.3,0.6,0.7,1,1
										l-1.3-0.9c0.8,1.6,1.6,3.2,2.3,4.9c-0.3,0.4-0.6,0.8-0.9,1.2c1.3-0.7,2.9,0.3,3.5,1.6c0.6,1.3,0.4,2.9,0.3,4.3
										c-0.8,8.1-0.4,16.3,1.2,24.3c-0.1,1.9-0.5,3.7-1.4,5.3c-1,1.7-3,3-5,2.7c0.4-1.9-0.3-4.2-1.9-5.3c-2,2.8-0.8,7.1-0.5,10.3
										c0.5,4.8,1.2,9.6,2.3,14.4c0.3-4.1,1.2-8.2,2.6-12c1.1,3.9,2.2,7.9,3.3,11.8c0-1.1,0.1-2.3,0.6-3.2c0.5-1,1.7-1.7,2.8-1.3
										c0.8,0.3,1.3,1.2,1.7,2.1c2.8,6.8,3.5,14.4,2,21.6c1.3,0.7,3.1-0.2,3.9-1.5c0.7-1.3,0.7-3,0.7-4.5
										C634.1,364.1,633.9,350.8,633.7,337.4z"/>
									<path class="st5" d="M599.8,341.7c-0.6,1.1,2,5.6,2.4,6.6c2.2,5.4,4.4,10.8,6.6,16.1c-0.7-7.1-2.5-14.1-5.1-20.7
										C603.2,342.7,601,339.4,599.8,341.7z"/>
									<path class="st5" d="M603.2,313.1c-0.4,0.6-0.9,1.3-1.6,1.1c-0.6-0.2-0.7-1-0.7-1.6c0.1-3.7,0.1-7.5,0.2-11.2
										c-3,2.2-2.6,5-2.8,8.2c-0.1,1.9,0.4,10.8-0.9,11.9c3-2.5,5.5-5.6,7.4-9.1C604.3,312,603.6,312.6,603.2,313.1z"/>
									<g class="st11">
										<path class="st6" d="M574.7,357.6c0.1-0.2,0.2-0.4,0.3-0.7C574.8,357.1,574.6,357.3,574.7,357.6z"/>
										<path class="st6" d="M577.6,342.1c-0.2-2.5,0.2-4.9,0.1-7.4c-0.1-2.5-0.7-5.1-2.5-6.8c-2.6-2.4-9.6-1.2-7.3,3.4
											c0.7,1.3,2.4,1.9,3.7,1.4s2-2.4,1.2-3.6c2.9,4.3,2.6,10.5-0.6,14.6c3.7,3.2,4.8,8.9,2.8,13.3c0.4-0.3,1.2-0.4,1.6,0
											c0.7,0.5,0.9,1.5,1.3,2.3c0.3,0.8,1,1.6,1.9,1.6c1.2-2.9,0.8-6.3,0-9.4C579,348.3,577.9,345.3,577.6,342.1z"/>
										<path class="st6" d="M603.5,295.7c-1.4-1.1-3-1.8-4.7-2L603.5,295.7z"/>
										<path class="st6" d="M615.3,327c-0.4-1.7-1.2-3.3-1.6-5c-1.1-3.9-0.4-8.1-0.9-12.1c-0.6-5.2-3.4-10.1-7.4-13.5l-1.8-0.8
											c1.7,1.3,3,3.2,3.6,5.2c1.4,4.8,1.8,9.8,2.4,14.7c0.9,7.6,2.3,15.2,4.2,22.6C614.9,334.6,616.1,330.8,615.3,327z"/>
										<path class="st6" d="M596.2,309.2c1.2-1,1.9-2.5,2.1-4.1c0.2-1.4,0.1-2.8-0.1-4.2c-0.1,0.6-0.9,1.1-1.6,0.9
											c-0.9-0.2-1.4-1-1.9-1.7c-0.1,0.4-0.2,0.8-0.4,1.3c0-0.2-0.1-0.5-0.1-0.7l-0.5,0.6c0.7,2,1.4,4.3,0.3,6.2
											c-0.5,0.9-1.4,1.5-2.3,2.1C593.1,310.5,595,310.2,596.2,309.2z"/>
										<path class="st6" d="M598.2,300.4c0,0.2,0,0.3,0.1,0.5C598.2,300.7,598.2,300.6,598.2,300.4z"/>
										<path class="st6" d="M592.9,320.6c-3.5-6.9-7-13.8-10.9-20.5c-2.3-3.9-4.6-7.8-7.6-11.2c-1.3-1.5-5.2-5-7.3-2.7
											c-1.4,1.5,0.4,4.3-1.3,5.9c0.4,0,2.4-0.2,2.6,0.1c4.4,5.4,6.8,12.4,6.7,19.4c1.4-1.1,3.3,0.4,4.4,1.8
											c6.8,8.7,13.1,17.8,19,27.1c-1.1-4.1-1.2-8.5-2.4-12.6C595.4,325.5,594.2,323,592.9,320.6z"/>
										<path class="st6" d="M633.7,337.4c1.7-4.5,3-9.1,3.1-13.8c0.1-4.3-0.9-8.8-3.1-12.5c-0.6-0.9-3-4.8-4.3-4.5
											c-2.3,0.6,0.7,4.6,1.3,5.7c2,3.8,4.1,7.9,4,12.3c-0.1,3.4-1.5,6.5-2.6,9.7c-0.8,2.2-1.4,4.6-1.4,6.9
											c-0.2,0.3-0.3,0.5-0.5,0.8c-1.6,2-3.7,3.7-6.3,4.1c1-3,1.9-6,2.9-9c0.3-1.1,0.5-2.5-0.1-3.3c0.2-0.4,0.3-0.8,0.3-1.3
											c0-0.8-0.5-1.6-0.8-2.3c-1.3-2.9-0.9-6.2-0.6-9.4c0.4-3.9,0.6-7.9-0.6-11.7c-1.1-3.7-3.8-7.2-7.5-8.5c0.3,0.3,0.6,0.7,1,1
											l-1.3-0.9c0.8,1.6,1.6,3.2,2.3,4.9c-0.3,0.4-0.6,0.8-0.9,1.2c1.3-0.7,2.9,0.3,3.5,1.6c0.6,1.3,0.4,2.9,0.3,4.3
											c-0.8,8.1-0.4,16.3,1.2,24.3c-0.1,1.9-0.5,3.7-1.4,5.3c-1,1.7-3,3-5,2.7c0.4-1.9-0.3-4.2-1.9-5.3c-2,2.8-0.8,7.1-0.5,10.3
											c0.5,4.8,1.2,9.6,2.3,14.4c0.3-4.1,1.2-8.2,2.6-12c1.1,3.9,2.2,7.9,3.3,11.8c0-1.1,0.1-2.3,0.6-3.2c0.5-1,1.7-1.7,2.8-1.3
											c0.8,0.3,1.3,1.2,1.7,2.1c2.8,6.8,3.5,14.4,2,21.6c1.3,0.7,3.1-0.2,3.9-1.5c0.7-1.3,0.7-3,0.7-4.5
											C634.1,364.1,633.9,350.8,633.7,337.4z"/>
										<path class="st6" d="M599.8,341.7c-0.6,1.1,2,5.6,2.4,6.6c2.2,5.4,4.4,10.8,6.6,16.1c-0.7-7.1-2.5-14.1-5.1-20.7
											C603.2,342.7,601,339.4,599.8,341.7z"/>
										<path class="st6" d="M603.2,313.1c-0.4,0.6-0.9,1.3-1.6,1.1c-0.6-0.2-0.7-1-0.7-1.6c0.1-3.7,0.1-7.5,0.2-11.2
											c-3,2.2-2.6,5-2.8,8.2c-0.1,1.9,0.4,10.8-0.9,11.9c3-2.5,5.5-5.6,7.4-9.1C604.3,312,603.6,312.6,603.2,313.1z"/>
									</g>
								</g>
							</g>
							<g>
								<g>
									<g>
										<path class="st12" d="M610.8,300.9c1.8,6.5,2.7,13.3,2.7,20c0,1.1,0,2.3,0.4,3.4c0.4,1.1,1.2,2.1,2.3,2.3"/>
										<path class="st12" d="M625,307.5c3,6.3-0.1,20.2,0.2,21.2c0.2,1,0.8,1.9,1.7,2.4"/>
										<g>
											<path class="st12" d="M599.2,300c-0.3,2-0.6,4.3-1,6.3c-2.3-2-3.8-4.9-4-8"/>
											<path class="st12" d="M580,353.4c-0.7,0.3-1.4,0.6-2.2,1"/>
											<path class="st12" d="M580.6,355.1c-0.4,1.7-0.4,3.4,0,5.1"/>
											<path class="st12" d="M593.2,336.4c0.8,1.4,1.6,2.9,2.4,4.3"/>
											<path class="st12" d="M597.8,320.7c0.8-1.1,1.6-2.2,2.4-3.4"/>
											<path class="st12" d="M631.3,336.4c-0.2,0.9-0.5,1.8-0.7,2.6"/>
											<path class="st12" d="M625.5,329.2c0.7-2.2,1.4-4.5,2.1-6.7"/>
											<path class="st12" d="M632.5,317.3c1.2-0.7,3-0.2,3.6,1.1"/>
											<path class="st12" d="M618.2,305.8c1.7-0.5,3.5,0,4.8,1.1"/>
											<path class="st12" d="M573.6,312.5c1.5-1.7,3.9-2.6,6.2-2.3"/>
										</g>
									</g>
									<path class="st12" d="M564.6,293.6c1.4-1,3.3-1.5,5-1.2"/>
									<path class="st6" d="M566.4,338.4c-1.2,0.9-2.2,2-2.9,3.3L566.4,338.4z"/>
								</g>
								<path class="st12" d="M567.4,333.8c1.6-1.1,4.1,1.4,5.6,0.1c0.6-0.5,0.6-1.4,0.5-2.2c-0.1-0.8-0.4-1.5-0.3-2.3"/>
							</g>
						</g>
					</g>
					<path class="st12" d="M612,326.9c1.9,3.9,2.3,8.6,1.1,12.8"/>
					<path class="st12" d="M623.6,333.1c0.3,1.9,0,3.9-1,5.5"/>
				</g>
			</g>
			<g>
				<g>
					<g>
						<g>
							<g>
								<path class="st13" d="M608,429.4l-10.4-32.9c-9.8-10.1-27.8-19.3-29.4-33.3c-2-17.9-4.8-17.2-4.8-21.7
									c0-0.2,1.3-2.2,2.8-6.8c0.5-1.5,0.7-3.6,1-5.4c0.3-1.9,1.9-3.3,3.8-3.1c1.3,0.1,2.5,0.6,3.5,1.4c1.8,1.5,2.7,3.9,3,6.3
									c0.2,2.4-0.1,4.8-0.5,7.1c1.9,3.6,3,8.1,3.8,12.2c0.8-3.4,1.4-6.7,2.3-10.1c0.2-0.1,0.1-0.4,0.3-0.5c-1.7-3.1-0.4-3-3.9-10
									c-5.8-11.6-12.2-22.8-17.2-37.6c-0.4-1.1-0.5-3.1-0.2-4.2c1.2-4.4,5.7-3.7,7.8-1.3c0.6,0.6,1,1.3,1.3,2.1
									c2.4,5.2,7.3,13.2,10.8,17.8l12,15.8c0,0,3.6-3.3,4.1-4.8l0,0c0.5-1.4,0-12.7,0-12.7s-0.7,2.2-2.6,2.2c-1.4,0-4.1,1-6.3-1.1
									c-1.7-1.7-1.9-4.5-0.6-6.5l4.5-7c0,0,3.1-3.1,7.7-1.4c4.5,1.7,9.1,5.5,9.1,5.5s4.1-0.5,7.7,1c3.6,1.4,7.6,6,7.6,6
									s4.1,0,6,1.2c0.5,0.3,7.3,9.5,5.6,17.2c-1,4.6-1.4,11.1-1.9,12.9l-0.1,44.2l8.3,29.3"/>
							</g>
							<g>
								<g>
									<g>
										<path class="st13" d="M610.8,300.9c1.8,6.5,2.7,13.3,2.7,20c0,1.1,0,2.3,0.4,3.4c0.4,1.1,1.2,2.1,2.3,2.3"/>
										<path class="st13" d="M625,307.5c3,6.3-0.1,20.2,0.2,21.2c0.2,1,0.8,1.9,1.7,2.4"/>
										<g>
											<path class="st13" d="M599.2,300c-0.3,2-0.6,4.3-1,6.3c-2.3-2-3.8-4.9-4-8"/>
											<path class="st13" d="M580,353.4c-0.7,0.3-1.4,0.6-2.2,1"/>
											<path class="st13" d="M580.6,355.1c-0.4,1.7-0.4,3.4,0,5.1"/>
											<path class="st13" d="M593.2,336.4c0.8,1.4,1.6,2.9,2.4,4.3"/>
											<path class="st13" d="M597.8,320.7c0.8-1.1,1.6-2.2,2.4-3.4"/>
											<path class="st13" d="M631.3,336.4c-0.2,0.9-0.5,1.8-0.7,2.6"/>
											<path class="st13" d="M625.5,329.2c0.7-2.2,1.4-4.5,2.1-6.7"/>
											<path class="st13" d="M632.5,317.3c1.2-0.7,3-0.2,3.6,1.1"/>
											<path class="st13" d="M618.2,305.8c1.7-0.5,3.5,0,4.8,1.1"/>
											<path class="st13" d="M573.6,312.5c1.5-1.7,3.9-2.6,6.2-2.3"/>
										</g>
									</g>
									<path class="st13" d="M564.6,293.6c1.4-1,3.3-1.5,5-1.2"/>
									<path class="st13" d="M566.4,338.4c-1.2,0.9-2.2,2-2.9,3.3"/>
								</g>
								<path class="st13" d="M567.4,333.8c1.6-1.1,4.1,1.4,5.6,0.1c0.6-0.5,0.6-1.4,0.5-2.2c-0.1-0.8-0.4-1.5-0.3-2.3"/>
							</g>
						</g>
					</g>
					<path class="st13" d="M612,326.9c1.9,3.9,2.3,8.6,1.1,12.8"/>
					<path class="st13" d="M623.6,333.1c0.3,1.9,0,3.9-1,5.5"/>
				</g>
			</g>
			<path class="st2" d="M526.9,348.1c0.1,0.7,0.1,1.4-0.1,2.1c-0.7,3-2.5,11.8-3.2,16.6c-0.8,5.9-10.3,24-10.3,24
				s-8.7,10.8-13.2,16.5c-2.2,2.8-5.6,14-8.6,24.7c-3.7-1.1-7.4-2.3-11-3.6c-3-1.1-6-2.2-9-3.4c-4.2-1.6-9.5-4.3-15.6-7.6
				c1.7-6,2.8-10.7,2.8-10.9c0-0.6,3.6-7.6,3.6-7.6l-3.1-41.4l-1.9-6.3c-1-3.3-1.6-6.6-1.8-10c-0.4-5.1,0-10.3,1.3-15.3l5.4-8.1
				l2.5-0.2l7.9-11c0,0,4.2-1.3,5.3,1.9c1.1,3.2-3.5,9.2-3.5,9.2l-1.6,9.9l3.8,9.2l2,0.7c0,0,0.7-16.3,0.2-19.5l4.2-14.9
				c0,0,2.5-5,3.3-7.5c0.8-2.5,5.2-5,7.8-0.6c0,0,1.4,2.2,0.4,5.3c-1.1,3-1.9,5.5-1.9,5.5s-0.9,12.6-1.2,12.9
				c-0.3,0.3,1.9,18.7,1.9,18.7l1.6,0.7l0.6-17.5l3.4-16.5c0,0-0.3-7.9,5.3-7c0,0,2.6-0.3,4.1,2.6c1.5,2.8,0.1,21.8,0.1,21.8
				l1.4,19.6l2.2,15.1l2.6-10.4c0,0,0.2-14.9,9.5-16.1c0,0,2.8-0.5,3.4,1.4c0.6,1.9-1.4,5.9-1.1,9.7
				C526.4,343.5,526.7,346.5,526.9,348.1z"/>
			<g>
				<g>
					<defs>
						<path id="XMLID_6_" d="M524.1,329.7c-0.4-2-3.2-1.7-3.2-1.7c-9.4,0.6-10.7,15.4-10.7,15.4l-3.4,10.1l-1.1-15.3l0.1-19.7
							c0,0,2.9-18.8,1.6-21.8c-1.3-3-3.9-2.9-3.9-2.9c-5.5-1.4-5.8,6.5-5.8,6.5l-4.6,16.2l-1.9,17.5l-1.6-0.8c0,0-0.7-18.5-0.4-18.8
							c0.3-0.3,2.2-12.8,2.2-12.8s1-2.3,2.3-5.3c1.3-3,0-5.3,0-5.3c-2.2-4.5-6.9-2.4-7.8,0c-1,2.4-3.8,7.2-3.8,7.2l-5.3,14.5
							c0.2,3.3-1.7,19.5-1.7,19.5l-1.9-0.9l-3.1-9.5l2.3-9.7c0,0,5.1-5.6,4.2-8.9c-0.8-3.3-5.2-2.3-5.2-2.3l-8.7,10.4h-2.5l-6,7.6
							c-1.6,4.9-2.5,10-2.5,15.2c0,3.4,0.4,6.8,1.1,10.1l1.4,6.4v41.6c0,0-4.1,6.7-4.1,7.3c0,0.3-1.7,5.5-4.1,12.1
							c10.4,6.1,19.3,10.8,25.6,13.3c3,1.2,6,2.3,9,3.4c3.8-10.7,8.2-22.1,10.7-24.8c4.9-5.3,14.4-15.4,14.4-15.4
							s10.8-17.4,12.1-23.1c1-4.7,3.6-13.3,4.5-16.3c0.2-0.7,0.3-1.4,0.2-2.1c-0.1-1.6-0.2-4.6-0.2-7.3
							C522.2,335.5,524.5,331.7,524.1,329.7z"/>
					</defs>
					<use xlink:href="#XMLID_6_"  style="overflow:visible;fill:#FFFFFF;"/>
					<clipPath id="XMLID_3_">
						<use xlink:href="#XMLID_6_"  style="overflow:visible;"/>
					</clipPath>
					<path class="st14" d="M459.2,325.5c1.6-2,4.9-2.8,6.8-1c1.1,1,1.4,2.6,1.7,4c0.3,1.5,0.5,3,1.5,4.1c1,1.1,2.9,1.6,3.9,0.5
						c0.1,2.2,0.3,4.4,0.4,6.6c2.3-4.1,3.5-8.8,3.4-13.4c0-2.3-0.4-4.6,0.1-6.8c0.5-2.2,2.2-4.4,4.5-4.5c2.5-0.1,4.5,2.3,5,4.8
						c0.5,2.5-0.1,5-0.2,7.5c-0.2,3.8,0.5,7.7,2.2,11.2c0.5-1.1,1.1-2.1,1.6-3.2c0.5,2.2,1,4.3,1.4,6.5c0.4-4.7,0.8-9.5,1.2-14.2
						c0.1-1.3,0.2-2.7,0.9-3.9s1.9-2.2,3.2-2c1.8,0.2,2.8,2.1,3.4,3.8c4.5,12.7,2.6,26.7,0.7,40.1c1.3,0.2,2.3-1,2.6-2.3
						c0.3-1.2,0.2-2.6,0.7-3.7c0.5-1.2,1.9-2.2,3-1.5c1.6,1,0.5,4.1,2.1,4.9c0.5-4,2.1-7.8,4.5-10.9c1.1-1.4,2.8-2.9,4.5-2.4
						c1.3,0.3,2.2,1.7,2.4,3c0.2,1.3,2.1-4.2,1.8-2.9c0.8-7.7-0.8-8.5,0-16.2c0.1-1.4,2.4-3.8,1.4-4.8c-0.9-1-3.6-2.4-4.8-1.8
						c-1.2,0.6-5.1,2.5-5.9,3.6c-4.9,6.8-4.6,16.6-6.1,24.8c-1.3-12.6-2.6-25.3-0.3-37.7c1.3-6.8,3.6-14,1.4-20.6
						c-1-3-3.7-6-6.8-5.5c-2.5,0.5-4,3-5.1,5.4c-3.4,7.9-5,16.5-6.5,25c1.9-8.5,3.8-17.1,5.6-25.6c0.5-2.2,1-4.5,0.6-6.7
						c-0.4-2.2-1.9-4.4-4.2-4.9c-2.2-0.5-4.4,0.8-6.1,2.4c-5.9,5.4-8.2,13.7-10.1,21.6c0.7-2,1.4-4.2,1.2-6.3
						c-0.2-2.1-1.6-4.3-3.7-4.8c-2.7-0.6-5.2,1.8-6.4,4.4c-1.2,2.5-1.8,5.4-3.7,7.4c-1.4-1.6-4-1.5-5.7-0.3c-1.7,1.2-2.8,3.1-3.6,5
						c-3.1,7-4.5,14.8-3.9,22.5c1.4-3.1,4.9-5.1,8.2-4.7c-0.2-1.7-0.4-3.4-0.6-5.1"/>
					<g class="st15">
						<g>
							<path class="st5" d="M465.8,341.8c-0.1,1.3-0.2,2.5-0.3,3.8c0.4-1.1,1.9-1.4,2.8-0.7c-0.2-0.8,0.3-1.6,0.6-2.3
								c0.3-0.8,0.4-1.8-0.4-2.2c-0.9-0.4-1.7,0.6-2.2,1.4c0-0.3-0.1-0.6-0.1-0.9L465.8,341.8z"/>
						</g>
						<g>
							<path class="st5" d="M480.1,339.5c-1,1.2-1.7,2.6-2,4.2c0.4-0.4,0.9-0.9,1.5-1.1c0.6-0.2,1.3-0.1,1.7,0.4
								c0.2,0.3,0.3,0.7,0.6,0.9c0.3,0.2,0.8,0,1-0.4c0.2-0.3,0.2-0.7,0.3-1.1c0-0.7,0.1-1.5-0.1-2.2c-0.2-0.7-0.7-1.4-1.4-1.5
								c-0.7-0.2-1.6,0.4-1.6,1.1L480.1,339.5z"/>
						</g>
						<g>
							<path class="st5" d="M494,343c-1.1,1.5-1.8,3.2-2.1,5c0.7-0.1,1.4-0.6,1.9-1c0.6-0.5,1.2-0.9,2-1s1.6,0.5,1.6,1.2
								c-0.1-0.8,0-1.7,0.1-2.5c0.1-0.8,0.1-1.7-0.2-2.5c-0.3-0.8-1.1-1.5-1.9-1.4c-0.8,0-1.6,1-1.2,1.8L494,343z"/>
						</g>
						<g>
							<path class="st5" d="M455.8,348c-0.8,1.4-1.2,3.1-1.2,4.7c0-0.8,0.7-1.4,1.5-1.5c0.7-0.1,1.5,0.2,2.1,0.6
								c0.1-0.8,0.3-1.5,0.1-2.3c-0.2-0.8-0.7-1.5-1.5-1.6c-0.8-0.1-1.6,0.6-1.4,1.4c-0.1-0.2-0.2-0.4-0.2-0.6L455.8,348z"/>
						</g>
					</g>
					<path id="XMLID_7_" class="st16" d="M459.2,325.5c1.6-2,4.9-2.8,6.8-1c1.1,1,1.4,2.6,1.7,4c0.3,1.5,0.5,3,1.5,4.1
						c1,1.1,2.9,1.6,3.9,0.5c0.1,2.2,0.3,4.4,0.4,6.6c2.3-4.1,3.5-8.8,3.4-13.4c0-2.3-0.4-4.6,0.1-6.8c0.5-2.2,2.2-4.4,4.5-4.5
						c2.5-0.1,4.5,2.3,5,4.8c0.5,2.5-0.1,5-0.2,7.5c-0.2,3.8,0.5,7.7,2.2,11.2c0.5-1.1,1.1-2.1,1.6-3.2c0.5,2.2,1,4.3,1.4,6.5
						c0.4-4.7,0.8-9.5,1.2-14.2c0.1-1.3,0.2-2.7,0.9-3.9s1.9-2.2,3.2-2c1.8,0.2,2.8,2.1,3.4,3.8c4.5,12.7,2.6,26.7,0.7,40.1
						c1.3,0.2,2.3-1,2.6-2.3c0.3-1.2,0.2-2.6,0.7-3.7c0.5-1.2,1.9-2.2,3-1.5c1.6,1,0.5,4.1,2.1,4.9c0.5-4,2.1-7.8,4.5-10.9
						c1.1-1.4,2.8-2.9,4.5-2.4c1.3,0.3,2.2,1.7,2.4,3c0.2,1.3,2.1-4.2,1.8-2.9c0.8-7.7-0.8-8.5,0-16.2c0.1-1.4,2.4-3.8,1.4-4.8
						c-0.9-1-3.6-2.4-4.8-1.8c-1.2,0.6-5.1,2.5-5.9,3.6c-4.9,6.8-4.6,16.6-6.1,24.8c-1.3-12.6-2.6-25.3-0.3-37.7
						c1.3-6.8,3.6-14,1.4-20.6c-1-3-3.7-6-6.8-5.5c-2.5,0.5-4,3-5.1,5.4c-3.4,7.9-5,16.5-6.5,25c1.9-8.5,3.8-17.1,5.6-25.6
						c0.5-2.2,1-4.5,0.6-6.7c-0.4-2.2-1.9-4.4-4.2-4.9c-2.2-0.5-4.4,0.8-6.1,2.4c-5.9,5.4-8.2,13.7-10.1,21.6c0.7-2,1.4-4.2,1.2-6.3
						c-0.2-2.1-1.6-4.3-3.7-4.8c-2.7-0.6-5.2,1.8-6.4,4.4c-1.2,2.5-1.8,5.4-3.7,7.4c-1.4-1.6-4-1.5-5.7-0.3c-1.7,1.2-2.8,3.1-3.6,5
						c-3.1,7-4.5,14.8-3.9,22.5c1.4-3.1,4.9-5.1,8.2-4.7c-0.2-1.7-0.4-3.4-0.6-5.1"/>
					<g class="st17">
						<g>
							<path class="st6" d="M465.8,341.8c-0.1,1.3-0.2,2.5-0.3,3.8c0.4-1.1,1.9-1.4,2.8-0.7c-0.2-0.8,0.3-1.6,0.6-2.3
								c0.3-0.8,0.4-1.8-0.4-2.2c-0.9-0.4-1.7,0.6-2.2,1.4c0-0.3-0.1-0.6-0.1-0.9L465.8,341.8z"/>
						</g>
						<g>
							<path class="st6" d="M480.1,339.5c-1,1.2-1.7,2.6-2,4.2c0.4-0.4,0.9-0.9,1.5-1.1c0.6-0.2,1.3-0.1,1.7,0.4
								c0.2,0.3,0.3,0.7,0.6,0.9c0.3,0.2,0.8,0,1-0.4c0.2-0.3,0.2-0.7,0.3-1.1c0-0.7,0.1-1.5-0.1-2.2c-0.2-0.7-0.7-1.4-1.4-1.5
								c-0.7-0.2-1.6,0.4-1.6,1.1L480.1,339.5z"/>
						</g>
						<g>
							<path class="st6" d="M494,343c-1.1,1.5-1.8,3.2-2.1,5c0.7-0.1,1.4-0.6,1.9-1c0.6-0.5,1.2-0.9,2-1s1.6,0.5,1.6,1.2
								c-0.1-0.8,0-1.7,0.1-2.5c0.1-0.8,0.1-1.7-0.2-2.5c-0.3-0.8-1.1-1.5-1.9-1.4c-0.8,0-1.6,1-1.2,1.8L494,343z"/>
						</g>
						<g>
							<path class="st6" d="M455.8,348c-0.8,1.4-1.2,3.1-1.2,4.7c0-0.8,0.7-1.4,1.5-1.5c0.7-0.1,1.5,0.2,2.1,0.6
								c0.1-0.8,0.3-1.5,0.1-2.3c-0.2-0.8-0.7-1.5-1.5-1.6c-0.8-0.1-1.6,0.6-1.4,1.4c-0.1-0.2-0.2-0.4-0.2-0.6L455.8,348z"/>
						</g>
					</g>
				</g>
				<g>
					<path class="st13" d="M446,411.6c2.4-6.5,4.1-11.8,4.1-12.1c0-0.6,4.1-7.3,4.1-7.3v-41.6l-1.4-6.4c-0.7-3.3-1.1-6.7-1.1-10.1
						c0-5.1,0.8-10.3,2.5-15.2l6-7.6h2.5l8.7-10.4c0,0,4.3-1,5.2,2.3c0.8,3.3-4.2,8.9-4.2,8.9l-2.3,9.7l3.1,9.5l1.9,0.9
						c0,0,1.9-16.2,1.7-19.5l5.3-14.5c0,0,2.9-4.8,3.8-7.2c1-2.4,5.6-4.5,7.8,0c0,0,1.3,2.3,0,5.3c-1.3,3-2.3,5.3-2.3,5.3
						s-1.9,12.5-2.2,12.8c-0.3,0.3,0.4,18.8,0.4,18.8l1.6,0.8l1.9-17.5l4.6-16.2c0,0,0.3-7.9,5.8-6.5c0,0,2.6-0.1,3.9,2.9
						c1.3,3-1.6,21.8-1.6,21.8l-0.1,19.7l1.1,15.3l3.4-10.1c0,0,1.3-14.8,10.7-15.4c0,0,2.8-0.3,3.2,1.7c0.4,2-1.8,5.8-1.8,9.6
						c0,2.7,0.1,5.7,0.2,7.3c0,0.7,0,1.4-0.2,2.1c-0.9,3-3.4,11.6-4.5,16.3c-1.3,5.8-12.1,23.1-12.1,23.1s-9.5,10.2-14.4,15.4
						c-2.5,2.7-6.9,14.1-10.7,24.8"/>
				</g>
				<path class="st3" d="M474.8,333.8c0.6,2,0,4.2-1.4,5.7"/>
				<path class="st3" d="M458.7,347.8c1.4-2.1,2.7-5,2.3-7.6c-0.7-4.9-3-10.6-2-15.4c0.6-3.1,1.3-6.2,1.9-9.3"/>
				<path class="st13" d="M498.6,301.4c1.6-0.4,3.4-0.4,5,0c0-0.5,0-0.9,0.1-1.4"/>
				<path class="st13" d="M485.5,295.2c1,0.7,2.3,0.8,3.4,0.2c1-0.6,1.7-1.7,1.7-2.9"/>
				<path class="st13" d="M521.6,329.9c-2.8,0.6-4.9,3.5-4.6,6.3c0.8,0.2,1.6,0.5,2.5,0.7"/>
				<path class="st3" d="M489.4,331.1c0.1,1.7-0.1,5.7,0,7.4"/>
				<path class="st3" d="M491.3,333.4c-0.2,2.7-0.4,5.5-0.6,8.2c0-0.3,0-0.7,0-1"/>
				<path class="st3" d="M506.5,356.6c0.7,3,0.4,6.3-0.9,9.1"/>
				<path class="st13" d="M481.2,342.2c-2.2,2.4-1.9,8.1-0.3,11.3"/>
				<path class="st13" d="M497.3,346.1c0.1,2.6-0.9,5.2-2.7,7.3"/>
				<path class="st13" d="M465.3,343.3c-0.4,2.4,0.2,4.9,1.5,7"/>
				<path class="st13" d="M456,350.8c-0.1,1.9,0.4,3.8,1.5,5.3"/>
				<path class="st13" d="M468.7,304.7c1.1-0.5,2.6-0.3,3.5,0.6c0.4-0.5,0.8-1.1,1.2-1.6"/>
				<path class="st13" d="M479,312c1.7-1.1,4.1-0.6,5.3,0.9"/>
				<path class="st13" d="M495,317c1.8-0.8,3.9-0.8,5.7,0.1"/>
				<path class="st13" d="M459.4,325.4c1-1.8,3.2-2.9,5.2-2.6"/>
				<path class="st13" d="M452.6,335c0-1.3,1.1-2.5,2.4-2.7"/>
			</g>
		</g>
		<g>
			<circle class="st18" cx="710.3" cy="221.7" r="41.4"/>
			<g>
				<g>
					<g>
						<path class="st2" d="M757.2,222.8c-8.8,14.5-12,12.5-42.1,27c-15.3,7.3-30.1-16.2-20.1-40.4c0.5-1.2,4.8-7.1,4.8-7.1
							c1.8-8,8.5-14.7,16.4-16.6c8-1.9,16.9,1.1,22.1,7.5c5.7-5,13.9-6.9,21.2-5.1c0.4,1,0.7,2,1,3c0.1,0.4,0.2,0.8,0.4,1.1
							c0.4,1.2,0.7,2.3,1.1,3.5c0.7,2.2,1.3,4.5,1.8,6.8c-3.3-0.9-6.7-0.9-9.8,0.6c-2.2,1.1-4.1,2.9-6.4,3.7
							c-2.3,0.9-5.5,0.4-6.4-1.9c1.1,4.6,6,3.2,10.6,4.2C759.1,210.4,761,216.7,757.2,222.8z"/>
					</g>
					<g>
						<path class="st19" d="M743.6,215.6c0,0,7.4-1,10.9-0.5c2.2,0.3,3.6,1.6,4.3,2.4c0.3,0.4,0.5,0.8,0.5,1.3l0.4,5.8
							c0,0.7-0.2,1.3-0.6,1.8c-1.4,1.5-5.8,4.3-18.8,5.2C722.2,233.2,743.6,215.6,743.6,215.6z"/>
						<g>
							<path class="st19" d="M738.2,200.6c2.1,2.6,6.1,8.5,6.1,17.6c0,6.9-8,30.5-28.5,33.4c-21.7,3-39.1-15.5-35.4-37.9
								C683,198.3,720.8,179,738.2,200.6z"/>
							<ellipse class="st6" cx="711.7" cy="216.7" rx="31.5" ry="29.8"/>
							<ellipse class="st8" cx="711.6" cy="218.3" rx="25.8" ry="24.5"/>
							<path class="st18" d="M743.2,216.7c0-16.5-14.1-29.8-31.5-29.8c-17.4,0-31.5,13.3-31.5,29.8"/>
							<path class="st18" d="M734.9,236.9c5.2-5.3,8.3-12.4,8.3-20.2"/>
							<path class="st18" d="M689.7,238c5.7,5.3,13.5,8.5,22,8.5c5.3,0,10.2-1.2,14.6-3.4"/>
							<path class="st18" d="M685.1,232.7c0.4,0.6,0.8,1.2,1.3,1.8"/>
							<path class="st18" d="M680.2,216.7c0,4.5,1.1,8.9,3,12.7"/>
						</g>
						<path class="st19" d="M757.9,224.9c0,0-5.6-3.9-14.7-0.4"/>
						<path class="st19" d="M753.1,227.6c-2.1,0.6-5.7,1.4-11.6,1.8"/>
						<path class="st19" d="M756,226.4c0,0-0.3,0.3-1.4,0.7"/>
					</g>
				</g>
				<g>
					<g>
						<path class="st6" d="M761,192.1c-0.1-0.4-0.2-0.8-0.4-1.1c-1.9-5.9-4.4-12.4-7.4-19.3c-0.5-1.3-1.1-2.6-1.7-3.9
							c-0.2,0-0.5,0-0.7,0.1c-2.9,0.3-5.9,0.7-8.2,2.3c-2.4,1.7-3.8,5.1-2.2,7.5c1.5,2.4,5.4,3.8,4.8,6.6c-6.4,3.6-14.2,3.2-21.4,5
							c-4.3,1.1-8.4,3-11.9,5.6c0,0,0,0,0,0c-1.1,0.8-2.2,1.8-3.2,2.7c-0.5,0.4-0.9,0.9-1.3,1.4c0,0,0,0,0,0c-0.6,0.8-1,1.6-1.1,2.5
							c-0.2,2.7,2.2,4.5,4.8,5.6c0.5,0.2,0.4,0.9,0,1.1c-1.7,0.7-3.3,1.5-4.7,2.7c0,0,0,0,0,0c-0.8,0.7-0.1,2.1,1,2
							c0.1,0,0.3,0,0.4,0c1.1-0.1,2.1,0.1,3,0.4c1.5,0.5,2.6,1.6,2.7,2.9c0.2,2-2.2,3.9-5.2,4.1c-0.7,0.1-0.2,0.9,0.9,1.1
							c2.1,0.4,4.3,0,6.4-0.5c2.5-0.6,5.2-1.5,6.6-3.6c0.6-0.9,0.8-2.1,0.6-3.2c-0.2-1.5-1.2-2.8-2.7-2.9c4.6-0.6,9.2-1.5,13.7-2.8
							h0l1.4-0.4c1.3-0.4,2.8-0.9,3.9-1.7c0.7-0.5,1.3-1.1,1.7-1.9c1-2-0.4-5.2-2.6-4.8c6.5-2.5,13.3-4,19.8-6.3
							C758.9,193,759.9,192.6,761,192.1z"/>
					</g>
				</g>
			</g>
		</g>
		<g>
			<path class="st19" d="M715.5,95.7L380,97.2l5.1-7.6c2.4-3.7,6.5-5.9,10.9-5.9h303.6c4,0,7.7,1.8,10.2,4.9L715.5,95.7z"/>
			<g>
				<g>
					<path class="st20" d="M553.6,232.7h-18.4c-18.9,0-34.2-15.3-34.2-34.2v-18.4c0-18.9,15.3-34.2,34.2-34.2h18.4
						c18.9,0,34.2,15.3,34.2,34.2v18.4C587.7,217.4,572.4,232.7,553.6,232.7z"/>
					<path class="st21" d="M516.8,196.6V209c0,3.9,3.1,7,7,7h42.3c3.8,0,7-3.1,7-7c0.1-5.5,0.3-12.4,0.3-12.4H516.8z"/>
					<g>
						<g>
							<path class="st22" d="M671.5,200.8H424.3c-2.6,0-5-1.6-5.9-4l-38.1-97.9c-1-2.6,0.9-5.3,3.6-5.3h328c2.7,0,4.6,2.8,3.6,5.3
								l-38.1,97.9C676.4,199.2,674.1,200.8,671.5,200.8z"/>
							<polygon class="st8" points="673.3,192.2 421.9,192.2 387.3,99.7 707.8,99.7 							"/>
						</g>
					</g>
				</g>
				<rect x="517.1" y="200.6" class="st8" width="56.1" height="3.8"/>
				<g>
					<g>
						<path class="st5" d="M636.6,188.3H459c-1,0-1.9-0.4-2.1-1L431.7,107c-0.3-0.9,0.5-1.6,1.8-1.6h228.7c1.3,0,2,0.7,1.8,1.6
							l-25.3,80.2C638.5,187.8,637.6,188.3,636.6,188.3z"/>
						<polygon class="st8" points="635.9,186.4 459.7,186.4 438.2,115.9 657.4,115.9 						"/>
						<g>
							<path class="st6" d="M485,133.4h-33.4c-0.8,0-1.4,0.4-1.2,1c0.2,0.5,0.9,1,1.8,1h33.2c0.8,0,1.4-0.4,1.3-1
								C486.5,133.9,485.8,133.4,485,133.4z"/>
							<path class="st6" d="M486.1,139.5h-28.4c-0.8,0-1.3,0.4-1.2,1c0.1,0.5,0.9,1,1.7,1h28.2c0.8,0,1.4-0.4,1.3-1
								C487.6,139.9,486.9,139.5,486.1,139.5z"/>
							<path class="st10" d="M487.2,145.4H455c-0.8,0-1.3,0.4-1.2,0.9c0.1,0.5,0.9,0.9,1.7,0.9h32c0.8,0,1.4-0.4,1.3-0.9
								C488.7,145.8,488,145.4,487.2,145.4z"/>
							<path class="st6" d="M488.2,151.1h-18.9c-0.8,0-1.3,0.4-1.2,0.9c0.1,0.5,0.8,0.9,1.6,0.9h18.8c0.8,0,1.3-0.4,1.2-0.9
								C489.7,151.5,489,151.1,488.2,151.1z"/>
							<path class="st6" d="M489.2,156.6h-31.1c-0.8,0-1.3,0.4-1.1,0.9c0.1,0.5,0.9,0.9,1.6,0.9h30.9c0.8,0,1.3-0.4,1.2-0.9
								C490.7,156.9,490,156.6,489.2,156.6z"/>
							<path class="st6" d="M490.2,161.9h-25.1c-0.8,0-1.3,0.4-1.1,0.8c0.1,0.5,0.8,0.8,1.6,0.8h25c0.8,0,1.3-0.4,1.2-0.8
								C491.6,162.2,490.9,161.9,490.2,161.9z"/>
							<path class="st6" d="M491.1,167h-24.7c-0.7,0-1.2,0.4-1.1,0.8c0.1,0.4,0.8,0.8,1.6,0.8h24.6c0.7,0,1.3-0.4,1.2-0.8
								C492.5,167.4,491.9,167,491.1,167z"/>
							<path class="st6" d="M492,172h-27c-0.7,0-1.2,0.4-1.1,0.8c0.1,0.4,0.8,0.8,1.5,0.8h26.8c0.7,0,1.3-0.3,1.2-0.8
								C493.4,172.3,492.8,172,492,172z"/>
							<path class="st10" d="M492.9,176.8h-17.4c-0.7,0-1.2,0.3-1.1,0.8c0.1,0.4,0.8,0.8,1.5,0.8h17.3c0.7,0,1.2-0.3,1.2-0.8
								C494.3,177.1,493.6,176.8,492.9,176.8z"/>
							<path class="st10" d="M483.8,127.1h-24.9c-0.8,0-1.4,0.5-1.3,1c0.1,0.6,0.9,1,1.8,1h24.7c0.8,0,1.4-0.5,1.3-1
								C485.4,127.6,484.7,127.1,483.8,127.1z"/>
							<path class="st6" d="M482.6,120.6H448c-0.9,0-1.4,0.5-1.2,1.1c0.2,0.6,1,1.1,1.8,1.1H483c0.8,0,1.5-0.5,1.3-1.1
								C484.2,121,483.5,120.6,482.6,120.6z"/>
							<path class="st6" d="M493.8,181.4h-28.7c-0.7,0-1.2,0.3-1.1,0.7c0.1,0.4,0.8,0.7,1.5,0.7H494c0.7,0,1.2-0.3,1.1-0.7
								C495.1,181.8,494.5,181.4,493.8,181.4z"/>
							<polygon class="st10" points="496.7,135.6 503.2,135.6 502.8,133.2 496.3,133.2 							"/>
							<polygon class="st10" points="497.6,141.7 504,141.7 503.6,139.3 497.2,139.3 							"/>
							<polygon class="st10" points="498.5,147.5 504.7,147.5 504.4,145.2 498.1,145.2 							"/>
							<polygon class="st10" points="499.3,153.1 505.5,153.1 505.2,150.9 499,150.9 							"/>
							<polygon class="st10" points="500.1,158.5 506.2,158.5 505.9,156.3 499.8,156.3 							"/>
							<polygon class="st10" points="500.9,163.7 506.9,163.7 506.6,161.7 500.6,161.7 							"/>
							<polygon class="st10" points="501.7,168.8 507.5,168.8 507.3,166.8 501.4,166.8 							"/>
							<polygon class="st10" points="502.4,173.7 508.2,173.7 507.9,171.8 502.1,171.8 							"/>
							<polygon class="st10" points="503.1,178.5 508.8,178.5 508.5,176.6 502.8,176.6 							"/>
							<polygon class="st10" points="495.8,129.4 502.3,129.4 502,126.9 495.4,126.9 							"/>
							<polygon class="st10" points="494.8,122.9 501.5,122.9 501.2,120.3 494.4,120.3 							"/>
							<polygon class="st10" points="503.8,183.1 509.4,183.1 509.1,181.2 503.5,181.2 							"/>
							<path class="st6" d="M537.9,172.7c0-0.4,0.6-0.8,1.3-0.8H635c0.7,0,1.2,0.4,1.1,0.8c-0.1,0.4-0.8,0.8-1.5,0.8h-95.3
								C538.5,173.5,537.9,173.2,537.9,172.7z"/>
							<path class="st6" d="M636,168.6h-53.1c-0.7,0-1.3-0.4-1.3-0.8c0-0.4,0.7-0.8,1.4-0.8h53.3c0.7,0,1.2,0.4,1.1,0.8
								C637.4,168.2,636.7,168.6,636,168.6z"/>
							<path class="st10" d="M570.4,168.6h-16.5c-0.7,0-1.3-0.4-1.3-0.8c0-0.4,0.6-0.8,1.4-0.8h16.6c0.7,0,1.3,0.4,1.3,0.8
								C571.7,168.2,571.1,168.6,570.4,168.6z"/>
							<path class="st6" d="M604.8,163.5H530c-0.8,0-1.4-0.4-1.4-0.8c0-0.5,0.6-0.8,1.3-0.8h75.2c0.8,0,1.3,0.4,1.2,0.8
								C606.2,163.2,605.6,163.5,604.8,163.5z"/>
							<path class="st10" d="M514.3,161.9h5.3c0.8,0,1.4,0.4,1.4,0.8c0,0.5-0.5,0.8-1.3,0.8h-5.3c-0.8,0-1.4-0.4-1.5-0.8
								C513,162.2,513.6,161.9,514.3,161.9z"/>
							<path class="st6" d="M615.6,157.4c-0.1,0.5-0.8,0.9-1.6,0.9h-70.5c-0.8,0-1.4-0.4-1.4-0.9c0-0.5,0.6-0.9,1.4-0.9h70.9
								C615.2,156.6,615.7,156.9,615.6,157.4z"/>
							<path class="st6" d="M513.7,156.6h20c0.8,0,1.4,0.4,1.4,0.9c0,0.5-0.6,0.9-1.3,0.9h-19.9c-0.8,0-1.4-0.4-1.5-0.9
								C512.4,156.9,513,156.6,513.7,156.6z"/>
							<path class="st6" d="M513.2,151.1h76.9c0.8,0,1.4,0.4,1.3,0.9c-0.1,0.5-0.7,0.9-1.5,0.9h-76.5c-0.8,0-1.5-0.4-1.5-0.9
								C511.8,151.5,512.4,151.1,513.2,151.1z"/>
							<path class="st6" d="M563.1,147.2c-0.8,0-1.4-0.4-1.4-0.9c0-0.5,0.7-0.9,1.5-0.9h40.6c0.8,0,1.4,0.4,1.3,0.9
								c-0.1,0.5-0.8,0.9-1.6,0.9H563.1z"/>
							<path class="st6" d="M512.6,145.4h35.1c0.8,0,1.4,0.4,1.4,0.9c0,0.5-0.6,0.9-1.4,0.9h-34.9c-0.8,0-1.5-0.4-1.5-0.9
								C511.2,145.8,511.8,145.4,512.6,145.4z"/>
							<path class="st6" d="M643.8,141.4h-96.7c-0.8,0-1.5-0.4-1.5-1c0-0.5,0.6-1,1.5-1h97.3c0.8,0,1.3,0.4,1.2,1
								C645.4,141,644.6,141.4,643.8,141.4z"/>
							<path class="st6" d="M645.5,135.4h-85.1c-0.8,0-1.5-0.4-1.5-1c0-0.5,0.7-1,1.5-1h85.6c0.8,0,1.4,0.4,1.2,1
								C647.1,135,646.3,135.4,645.5,135.4z"/>
							<path class="st10" d="M647.3,129.2h-17.8c-0.8,0-1.4-0.5-1.3-1c0.1-0.6,0.9-1,1.8-1h17.9c0.8,0,1.4,0.5,1.2,1
								C649,128.7,648.2,129.2,647.3,129.2z"/>
							<path class="st6" d="M617,129.2h-65.4c-0.8,0-1.5-0.5-1.5-1c0-0.6,0.7-1,1.5-1h65.8c0.8,0,1.4,0.5,1.3,1
								C618.6,128.7,617.9,129.2,617,129.2z"/>
							<path class="st6" d="M515.9,176.8h60.4c0.7,0,1.3,0.3,1.2,0.8c0,0.4-0.7,0.8-1.4,0.8h-60.1c-0.7,0-1.3-0.3-1.4-0.8
								C514.6,177.1,515.2,176.8,515.9,176.8z"/>
							<path class="st6" d="M516.4,181.4h92.8c0.7,0,1.2,0.3,1.1,0.7c-0.1,0.4-0.7,0.7-1.4,0.7h-92.4c-0.7,0-1.3-0.3-1.4-0.7
								C515.2,181.8,515.7,181.4,516.4,181.4z"/>
							<path class="st6" d="M613.8,122.7h-47.3c-0.8,0-1.5-0.5-1.5-1.1c0-0.6,0.7-1.1,1.6-1.1h47.5c0.9,0,1.5,0.5,1.3,1.1
								C615.4,122.2,614.6,122.7,613.8,122.7z"/>
							<path class="st10" d="M553.1,122.7h-43c-0.8,0-1.6-0.5-1.7-1.1c-0.1-0.6,0.6-1.1,1.4-1.1h43.2c0.9,0,1.5,0.5,1.5,1.1
								C554.7,122.2,554,122.7,553.1,122.7z"/>
							<path class="st10" d="M589.7,176.8c0.7,0,1.3,0.3,1.2,0.8c-0.1,0.4-0.7,0.8-1.4,0.8h-4.7c-0.7,0-1.3-0.3-1.2-0.8
								c0.1-0.4,0.7-0.8,1.4-0.8H589.7z"/>
							<path class="st10" d="M532.4,172.7c0,0.4-0.6,0.8-1.3,0.8h-6.4c-0.7,0-1.3-0.3-1.4-0.8c0-0.4,0.5-0.8,1.3-0.8h6.4
								C531.8,172,532.4,172.3,532.4,172.7z"/>
							<path class="st10" d="M609.2,152c-0.1,0.5-0.8,0.9-1.6,0.9h-7.4c-0.8,0-1.3-0.4-1.3-0.9c0.1-0.5,0.8-0.9,1.6-0.9h7.5
								C608.7,151.1,609.3,151.5,609.2,152z"/>
							<path class="st10" d="M632.4,156.6c0.8,0,1.3,0.4,1.2,0.9c-0.1,0.5-0.9,0.9-1.6,0.9H626c-0.8,0-1.3-0.4-1.2-0.9
								c0.1-0.5,0.8-0.9,1.6-0.9H632.4z"/>
							<path class="st10" d="M535.4,141.4c-0.8,0-1.5-0.4-1.5-1c0-0.5,0.6-1,1.4-1h6.3c0.8,0,1.5,0.4,1.5,1c0,0.5-0.6,1-1.4,1H535.4
								z"/>
						</g>
					</g>
					<g>
						<path class="st6" d="M449.4,110.6c0.5,1.6-0.5,3-2.1,3c-1.6,0-3.4-1.3-3.9-3c-0.5-1.7,0.4-3,2.1-3
							C447.2,107.6,449,109,449.4,110.6z"/>
						<path class="st6" d="M457.6,110.7c0.4,1.6-0.6,2.9-2.2,2.9c-1.6,0-3.4-1.3-3.8-2.9c-0.5-1.7,0.5-3,2.2-3
							C455.4,107.7,457.1,109,457.6,110.7z"/>
						<path class="st6" d="M465.8,110.6c0.4,1.6-0.6,3-2.3,3c-1.6,0-3.3-1.3-3.7-3c-0.4-1.7,0.6-3,2.3-3
							C463.7,107.6,465.4,109,465.8,110.6z"/>
					</g>
				</g>
				<g>
					<polygon class="st23" points="387.3,99.7 414.2,171.8 446.7,99.7 					"/>
					<polygon class="st23" points="432.7,192.2 486.7,99.7 543.1,99.7 463.7,192.2 					"/>
					<polygon class="st23" points="567.4,99.3 483.4,192.2 496.3,192.2 583.4,99.7 					"/>
					<polygon class="st23" points="584,192.2 676.4,99.7 689.5,99.7 594.2,192.2 					"/>
				</g>
			</g>
		</g>
		<g>
			<g>
				<g>
					<g>
						<path class="st19" d="M458.8,232.4h-21.1c-2.7,0-5,2.2-5,5v10.3c0,2.7,2.2,5,5,5h5.5l4.2,9.5l5.9-9.5h5.5c2.7,0,5-2.2,5-5
							v-10.3C463.7,234.6,461.5,232.4,458.8,232.4z"/>
					</g>
				</g>
				<g>
					<path class="st8" d="M445.3,238.2c0-0.5,0.4-1,1-1c0.6,0,1,0.4,1,0.9c0,0.6-0.4,1-1,1C445.7,239.2,445.3,238.8,445.3,238.2z
						 M445.5,240.3h1.6v6.9h-1.6V240.3z"/>
					<path class="st8" d="M451,240v0.4h1.9v1.3h-1.8v5.5h-1.6v-5.5h-1.1v-1.3h1.1v-0.4c0-1.4,0.9-2.4,2.5-2.4c0.6,0,1.1,0.1,1.5,0.4
						l-0.4,1.2c-0.2-0.2-0.6-0.3-0.9-0.3C451.3,238.9,451,239.2,451,240z"/>
				</g>
			</g>
			<g>
				<g>
					<g>
						<path class="st19" d="M523,233.8h-21.1c-2.7,0-5,2.2-5,5V249c0,2.7,2.2,5,5,5h5.5l4.2,9.5l5.9-9.5h5.5c2.7,0,5-2.2,5-5v-10.3
							C528,236,525.7,233.8,523,233.8z"/>
					</g>
				</g>
				<g>
					<path class="st8" d="M506.3,245.7h-5.4c0.2,1,1,1.6,2.2,1.6c0.8,0,1.4-0.2,1.9-0.7l0.9,1c-0.6,0.7-1.6,1.1-2.8,1.1
						c-2.3,0-3.8-1.5-3.8-3.5c0-2,1.5-3.5,3.5-3.5c2,0,3.5,1.4,3.5,3.5C506.4,245.4,506.3,245.6,506.3,245.7z M500.9,244.6h3.9
						c-0.1-1-0.9-1.7-1.9-1.7C501.8,243,501.1,243.6,500.9,244.6z"/>
					<path class="st8" d="M507.9,239.1h1.6v9.5h-1.6V239.1z"/>
					<path class="st8" d="M510.8,247.9l0.6-1.2c0.6,0.4,1.5,0.7,2.4,0.7c1,0,1.4-0.3,1.4-0.8c0-1.3-4.2-0.1-4.2-2.8
						c0-1.3,1.2-2.1,3-2.1c0.9,0,2,0.2,2.6,0.6l-0.6,1.2c-0.7-0.4-1.3-0.5-2-0.5c-1,0-1.4,0.3-1.4,0.8c0,1.4,4.2,0.2,4.2,2.8
						c0,1.3-1.2,2.1-3.1,2.1C512.6,248.7,511.4,248.4,510.8,247.9z"/>
					<path class="st8" d="M524.6,245.7h-5.4c0.2,1,1,1.6,2.2,1.6c0.8,0,1.4-0.2,1.9-0.7l0.9,1c-0.6,0.7-1.6,1.1-2.8,1.1
						c-2.3,0-3.8-1.5-3.8-3.5c0-2,1.5-3.5,3.5-3.5c2,0,3.5,1.4,3.5,3.5C524.7,245.4,524.7,245.6,524.6,245.7z M519.2,244.6h3.9
						c-0.1-1-0.9-1.7-1.9-1.7C520.2,243,519.4,243.6,519.2,244.6z"/>
				</g>
			</g>
			<g>
				<g>
					<g>
						<path class="st19" d="M585.3,233.2h-21.1c-2.7,0-5,2.2-5,5v10.3c0,2.7,2.2,5,5,5h5.5l4.2,9.5l5.9-9.5h5.5c2.7,0,5-2.2,5-5
							v-10.3C590.2,235.4,588,233.2,585.3,233.2z"/>
					</g>
				</g>
				<g>
					<path class="st8" d="M569,240.8v0.4h1.9v1.3H569v5.5h-1.6v-5.5h-1.1v-1.3h1.1v-0.4c0-1.4,0.9-2.4,2.5-2.4
						c0.6,0,1.1,0.1,1.5,0.4l-0.5,1.2c-0.2-0.2-0.6-0.3-0.9-0.3C569.3,239.7,569,240.1,569,240.8z"/>
					<path class="st8" d="M571.3,244.6c0-2.1,1.5-3.5,3.6-3.5c2.1,0,3.7,1.5,3.7,3.5c0,2.1-1.5,3.5-3.7,3.5
						C572.8,248.1,571.3,246.6,571.3,244.6z M577,244.6c0-1.3-0.9-2.1-2-2.1c-1.2,0-2,0.8-2,2.1c0,1.3,0.9,2.1,2,2.1
						C576.1,246.7,577,245.9,577,244.6z"/>
					<path class="st8" d="M584.1,241.1v1.5c-0.1,0-0.3,0-0.4,0c-1.2,0-2,0.7-2,2.1v3.3h-1.6v-6.9h1.5v1
						C582.1,241.4,583,241.1,584.1,241.1z"/>
				</g>
			</g>
			<g>
				<g>
					<g>
						<path class="st19" d="M646.6,232.4h-21.1c-2.7,0-5,2.2-5,5v10.3c0,2.7,2.2,5,5,5h5.5l4.2,9.5l5.9-9.5h5.5c2.7,0,5-2.2,5-5
							v-10.3C651.6,234.6,649.4,232.4,646.6,232.4z"/>
					</g>
				</g>
				<g>
					<path class="st8" d="M633.3,240h5.9v1.3h-5.9V240z M633.3,243.1h5.9v1.3h-5.9V243.1z"/>
				</g>
			</g>
			<g>
				<g>
					<g>
						<path class="st19" d="M490.9,220.5h-21.1c-2.7,0-5,2.2-5,5v10.3c0,2.7,2.2,5,5,5h5.5l4.2,9.5l5.9-9.5h5.5c2.7,0,5-2.2,5-5
							v-10.3C495.9,222.7,493.7,220.5,490.9,220.5z"/>
					</g>
				</g>
				<g>
					<path class="st8" d="M475.4,224.8h3.1v1.3H477v9.5h1.5v1.3h-3.1V224.8z"/>
					<path class="st8" d="M482.5,236.8v-1.3h1.5V226h-1.5v-1.3h3.1v12H482.5z"/>
				</g>
			</g>
			<g>
				<g>
					<g>
						<path class="st19" d="M553.7,219.4h-21.1c-2.7,0-5,2.2-5,5v10.3c0,2.7,2.2,5,5,5h5.5l4.2,9.5l5.9-9.5h5.5c2.7,0,5-2.2,5-5
							v-10.3C558.6,221.7,556.4,219.4,553.7,219.4z"/>
					</g>
				</g>
				<g>
					<path class="st8" d="M538.8,229.7c0.5,0.2,0.8,0.5,0.8,1.3v2.4c0,0.6,0.3,1,1,1h0.3v1.3h-0.6c-1.5,0-2.2-0.7-2.2-2.1v-2.6
						c0-0.4-0.2-0.6-0.6-0.6H537V229h0.4c0.4,0,0.6-0.2,0.6-0.6v-2.6c0-1.4,0.7-2.1,2.2-2.1h0.6v1.3h-0.3c-0.6,0-1,0.4-1,1v2.4
						C539.6,229.2,539.3,229.5,538.8,229.7z"/>
					<path class="st8" d="M548.6,229v1.3h-0.4c-0.3,0-0.6,0.2-0.6,0.6v2.6c0,1.4-0.7,2.1-2.2,2.1h-0.6v-1.3h0.3c0.7,0,1-0.4,1-1V231
						c0-0.8,0.2-1.1,0.7-1.3c-0.5-0.2-0.7-0.5-0.7-1.3v-2.4c0-0.6-0.3-1-1-1h-0.3v-1.3h0.6c1.5,0,2.2,0.7,2.2,2.1v2.6
						c0,0.4,0.2,0.6,0.6,0.6H548.6z"/>
				</g>
			</g>
			<g>
				<g>
					<g>
						<path class="st19" d="M615.7,217.4h-21.1c-2.7,0-5,2.2-5,5v10.3c0,2.7,2.2,5,5,5h5.5l4.2,9.5l5.9-9.5h5.5c2.7,0,5-2.2,5-5
							v-10.3C620.7,219.6,618.5,217.4,615.7,217.4z"/>
					</g>
				</g>
				<g>
					<path class="st8" d="M604.3,225c0-0.6,0.5-1.1,1.1-1.1c0.6,0,1.1,0.4,1.1,1.1c0,0.6-0.5,1.1-1.1,1.1
						C604.8,226,604.3,225.6,604.3,225z M606.4,229.8c0,0.3-0.1,0.5-0.3,1.1l-0.7,1.8h-1l0.5-2c-0.4-0.2-0.6-0.5-0.6-1
						c0-0.6,0.4-1.1,1-1.1C606,228.8,606.4,229.2,606.4,229.8z"/>
				</g>
			</g>
			<g>
				<g>
					<g>
						<path class="st19" d="M533.2,396.8h21.1c2.7,0,5-2.2,5-5v-10.3c0-2.7-2.2-5-5-5h-5.5l-1.6-9.5l-8.5,9.5h-5.5c-2.7,0-5,2.2-5,5
							v10.3C528.3,394.6,530.5,396.8,533.2,396.8z"/>
					</g>
				</g>
				<g>
					<path class="st8" d="M540.6,384.6l-4.4,1.7l4.4,1.7v1.3l-5.9-2.3v-1.4l5.9-2.3V384.6z"/>
					<path class="st8" d="M545.3,379.9h1.4l-4.2,12.1h-1.4L545.3,379.9z"/>
					<path class="st8" d="M553,385.6v1.4l-5.9,2.3v-1.3l4.4-1.7l-4.4-1.7v-1.3L553,385.6z"/>
				</g>
			</g>
			<g>
				<g>
					<g>
						<g>
							<path class="st19" d="M399.1,322.1h21.1c2.7,0,5-2.2,5-5v-10.3c0-2.7-2.2-5-5-5h-5.5l1.2-9.5l-11.3,9.5h-5.5
								c-2.7,0-5,2.2-5,5v10.3C394.2,319.8,396.4,322.1,399.1,322.1z"/>
						</g>
					</g>
				</g>
				<g>
					<path class="st8" d="M405.4,315.5c0-0.6,0.4-1,1-1c0.6,0,1,0.4,1,1c0,0.6-0.4,1-1,1C405.8,316.5,405.4,316.1,405.4,315.5z
						 M405.5,307.5h1.9l-0.3,6h-1.3L405.5,307.5z"/>
					<path class="st8" d="M409,309.8h5.9v1.3H409V309.8z M409,312.9h5.9v1.3H409V312.9z"/>
				</g>
			</g>
		</g>
		<g>
			<g>
				<g>
					<g>
						<defs>
							<path id="XMLID_5_" d="M736.9,310.4c0,4.1-0.3,8.1-1,11.9c-2.9,17.3-12,29.9-22.8,29.9c-1,0-1.9-0.1-2.9-0.3
								c-11.7-2.5-20.9-20.1-20.9-41.5c0-23.1,10.6-31.2,23.7-31.2C726.3,279.2,736.9,287.3,736.9,310.4z"/>
						</defs>
						<use xlink:href="#XMLID_5_"  style="overflow:visible;fill:#FFFFFF;"/>
						<clipPath id="XMLID_4_">
							<use xlink:href="#XMLID_5_"  style="overflow:visible;"/>
						</clipPath>
						<g class="st24">
							<path class="st5" d="M728.3,310.7c0.9,12.4-1.2,24.8-4.8,36.7c8.9-7.3,13.1-18.9,16.8-29.8c2.7-8,5.4-16.1,4.9-24.5
								c-0.5-8.4-5-17.1-12.8-20c-3.8-1.4-8.3-1.3-12.1,0.2c-6.6,2.6-3,4.8-0.2,9.5C725,291.2,727.6,300.9,728.3,310.7z"/>
							<path class="st10" d="M728.3,310.7c0.9,12.4-1.2,24.8-4.8,36.7c8.9-7.3,13.1-18.9,16.8-29.8c2.7-8,5.4-16.1,4.9-24.5
								c-0.5-8.4-5-17.1-12.8-20c-3.8-1.4-8.3-1.3-12.1,0.2c-6.6,2.6-3,4.8-0.2,9.5C725,291.2,727.6,300.9,728.3,310.7z"/>
						</g>
						<use xlink:href="#XMLID_5_"  style="overflow:visible;fill:none;stroke:#263238;stroke-miterlimit:10;"/>
					</g>
					<g>
						<path class="st3" d="M725.9,331.7c-1.6,5.3-4.2,10.3-7.8,14.6"/>
						<path class="st13" d="M726.7,328.7c-0.1,0.6-0.3,1.1-0.4,1.7"/>
						<path class="st3" d="M726.6,310.4c1.3,5.3,1.4,10.9,0.5,16.3"/>
					</g>
					<path class="st13" d="M689.5,310.4c0,0,27-10.7,47.5,0"/>
					<path class="st3" d="M713.2,279.2c0,0,2.7,10,3,26.3"/>
					<path class="st22" d="M716.9,291.3c0.3,3.1-0.2,5.8-1.2,5.9c-1,0.2-2.1-2.2-2.5-5.3c-0.3-3.1,0.2-5.8,1.2-5.9
						C715.5,285.8,716.6,288.2,716.9,291.3z"/>
				</g>
			</g>
			<path class="st13" d="M702.5,360.2h-31.6c-3.9,0-7.2-2.9-7.7-6.7c-0.1-0.3-0.1-0.7-0.1-1.1v-74.6c0-0.4,0-0.7,0.1-1.1
				c0.5-3.8,3.8-6.7,7.7-6.7h89.7c1.4,0,2.6,0.4,3.7,1"/>
		</g>
	</g>
</g>
</svg>
